<mxfile host="app.diagrams.net" modified="2023-11-28T04:22:41.131Z" agent="Mozilla/5.0 (Windows NT 10.0; Win64; x64) AppleWebKit/537.36 (KHTML, like Gecko) Chrome/119.0.0.0 Safari/537.36" etag="f3mG2EDWNKr4BOvSuuMd" version="22.1.4" type="device">
  <diagram name="Page-1" id="2YBvvXClWsGukQMizWep">
    <mxGraphModel dx="2489" dy="2140" grid="1" gridSize="10" guides="1" tooltips="1" connect="1" arrows="1" fold="1" page="1" pageScale="1" pageWidth="850" pageHeight="1100" math="0" shadow="0">
      <root>
        <mxCell id="0" />
        <mxCell id="1" parent="0" />
        <mxCell id="aM9ryv3xv72pqoxQDRHE-1" value="User" style="shape=umlLifeline;perimeter=lifelinePerimeter;whiteSpace=wrap;html=1;container=0;dropTarget=0;collapsible=0;recursiveResize=0;outlineConnect=0;portConstraint=eastwest;newEdgeStyle={&quot;edgeStyle&quot;:&quot;elbowEdgeStyle&quot;,&quot;elbow&quot;:&quot;vertical&quot;,&quot;curved&quot;:0,&quot;rounded&quot;:0};" parent="1" vertex="1">
          <mxGeometry x="40" y="30" width="100" height="300" as="geometry" />
        </mxCell>
        <mxCell id="aM9ryv3xv72pqoxQDRHE-2" value="" style="html=1;points=[];perimeter=orthogonalPerimeter;outlineConnect=0;targetShapes=umlLifeline;portConstraint=eastwest;newEdgeStyle={&quot;edgeStyle&quot;:&quot;elbowEdgeStyle&quot;,&quot;elbow&quot;:&quot;vertical&quot;,&quot;curved&quot;:0,&quot;rounded&quot;:0};" parent="aM9ryv3xv72pqoxQDRHE-1" vertex="1">
          <mxGeometry x="45" y="70" width="10" height="190" as="geometry" />
        </mxCell>
        <mxCell id="aM9ryv3xv72pqoxQDRHE-7" value="&lt;font style=&quot;font-size: 12px;&quot;&gt;Memasukkan URL/ Permintaan mencari&lt;/font&gt;" style="html=1;verticalAlign=bottom;endArrow=block;edgeStyle=elbowEdgeStyle;elbow=horizontal;curved=0;rounded=0;" parent="1" source="aM9ryv3xv72pqoxQDRHE-2" target="BMKjqZXLXUz-6qj3IRzr-2" edge="1">
          <mxGeometry relative="1" as="geometry">
            <mxPoint x="195" y="130" as="sourcePoint" />
            <Array as="points">
              <mxPoint x="180" y="120" />
            </Array>
            <mxPoint as="offset" />
            <mxPoint x="265" y="120" as="targetPoint" />
          </mxGeometry>
        </mxCell>
        <mxCell id="eNH3HvTex0NldEI9Lbjo-23" value="" style="edgeStyle=elbowEdgeStyle;rounded=0;orthogonalLoop=1;jettySize=auto;html=1;elbow=vertical;curved=0;" parent="1" source="BMKjqZXLXUz-6qj3IRzr-2" edge="1">
          <mxGeometry relative="1" as="geometry">
            <mxPoint x="294" y="230" as="sourcePoint" />
            <mxPoint x="94" y="230" as="targetPoint" />
          </mxGeometry>
        </mxCell>
        <mxCell id="BMKjqZXLXUz-6qj3IRzr-1" value="Current Browser" style="shape=umlLifeline;perimeter=lifelinePerimeter;whiteSpace=wrap;html=1;container=0;dropTarget=0;collapsible=0;recursiveResize=0;outlineConnect=0;portConstraint=eastwest;newEdgeStyle={&quot;edgeStyle&quot;:&quot;elbowEdgeStyle&quot;,&quot;elbow&quot;:&quot;vertical&quot;,&quot;curved&quot;:0,&quot;rounded&quot;:0};" parent="1" vertex="1">
          <mxGeometry x="240" y="30" width="100" height="300" as="geometry" />
        </mxCell>
        <mxCell id="BMKjqZXLXUz-6qj3IRzr-2" value="" style="html=1;points=[];perimeter=orthogonalPerimeter;outlineConnect=0;targetShapes=umlLifeline;portConstraint=eastwest;newEdgeStyle={&quot;edgeStyle&quot;:&quot;elbowEdgeStyle&quot;,&quot;elbow&quot;:&quot;vertical&quot;,&quot;curved&quot;:0,&quot;rounded&quot;:0};" parent="BMKjqZXLXUz-6qj3IRzr-1" vertex="1">
          <mxGeometry x="45" y="80" width="10" height="170" as="geometry" />
        </mxCell>
        <mxCell id="BMKjqZXLXUz-6qj3IRzr-5" value="Web Server" style="shape=umlLifeline;perimeter=lifelinePerimeter;whiteSpace=wrap;html=1;container=0;dropTarget=0;collapsible=0;recursiveResize=0;outlineConnect=0;portConstraint=eastwest;newEdgeStyle={&quot;edgeStyle&quot;:&quot;elbowEdgeStyle&quot;,&quot;elbow&quot;:&quot;vertical&quot;,&quot;curved&quot;:0,&quot;rounded&quot;:0};" parent="1" vertex="1">
          <mxGeometry x="490" y="30" width="100" height="300" as="geometry" />
        </mxCell>
        <mxCell id="BMKjqZXLXUz-6qj3IRzr-6" value="" style="html=1;points=[];perimeter=orthogonalPerimeter;outlineConnect=0;targetShapes=umlLifeline;portConstraint=eastwest;newEdgeStyle={&quot;edgeStyle&quot;:&quot;elbowEdgeStyle&quot;,&quot;elbow&quot;:&quot;vertical&quot;,&quot;curved&quot;:0,&quot;rounded&quot;:0};" parent="BMKjqZXLXUz-6qj3IRzr-5" vertex="1">
          <mxGeometry x="45" y="80" width="10" height="170" as="geometry" />
        </mxCell>
        <mxCell id="BMKjqZXLXUz-6qj3IRzr-7" value="&lt;font style=&quot;font-size: 12px;&quot;&gt;Meminta kata kunci pencarian&lt;/font&gt;" style="html=1;verticalAlign=bottom;endArrow=block;edgeStyle=elbowEdgeStyle;elbow=horizontal;curved=0;rounded=0;" parent="1" edge="1">
          <mxGeometry x="0.0056" relative="1" as="geometry">
            <mxPoint x="296" y="140" as="sourcePoint" />
            <Array as="points">
              <mxPoint x="501" y="115" />
            </Array>
            <mxPoint x="537.5" y="140" as="targetPoint" />
            <mxPoint as="offset" />
          </mxGeometry>
        </mxCell>
        <mxCell id="eNH3HvTex0NldEI9Lbjo-22" value="&lt;b&gt;Mencari di web browser&lt;/b&gt;" style="text;strokeColor=none;fillColor=none;align=left;verticalAlign=top;spacingLeft=4;spacingRight=4;overflow=hidden;rotatable=0;points=[[0,0.5],[1,0.5]];portConstraint=eastwest;whiteSpace=wrap;html=1;" parent="1" vertex="1">
          <mxGeometry x="30" y="-26" width="170" height="26" as="geometry" />
        </mxCell>
        <mxCell id="eNH3HvTex0NldEI9Lbjo-25" value="Menampilkan hasil pencarian" style="text;strokeColor=none;fillColor=none;align=left;verticalAlign=top;spacingLeft=4;spacingRight=4;overflow=hidden;rotatable=0;points=[[0,0.5],[1,0.5]];portConstraint=eastwest;whiteSpace=wrap;html=1;" parent="1" vertex="1">
          <mxGeometry x="120" y="195" width="140" height="40" as="geometry" />
        </mxCell>
        <mxCell id="eNH3HvTex0NldEI9Lbjo-26" value="" style="edgeStyle=elbowEdgeStyle;rounded=0;orthogonalLoop=1;jettySize=auto;html=1;elbow=vertical;curved=0;" parent="1" target="BMKjqZXLXUz-6qj3IRzr-2" edge="1">
          <mxGeometry relative="1" as="geometry">
            <mxPoint x="535.5" y="190" as="sourcePoint" />
            <mxPoint x="300" y="190" as="targetPoint" />
          </mxGeometry>
        </mxCell>
        <mxCell id="eNH3HvTex0NldEI9Lbjo-29" value="Hasil pencarian berdasarkan kata kunci" style="text;html=1;align=center;verticalAlign=middle;resizable=0;points=[];autosize=1;strokeColor=none;fillColor=none;" parent="1" vertex="1">
          <mxGeometry x="305" y="165" width="230" height="30" as="geometry" />
        </mxCell>
        <mxCell id="xoWKOB-SRWg8R9d9Arxa-1" value="User" style="shape=umlLifeline;perimeter=lifelinePerimeter;whiteSpace=wrap;html=1;container=0;dropTarget=0;collapsible=0;recursiveResize=0;outlineConnect=0;portConstraint=eastwest;newEdgeStyle={&quot;edgeStyle&quot;:&quot;elbowEdgeStyle&quot;,&quot;elbow&quot;:&quot;vertical&quot;,&quot;curved&quot;:0,&quot;rounded&quot;:0};" parent="1" vertex="1">
          <mxGeometry x="770" y="30" width="100" height="350" as="geometry" />
        </mxCell>
        <mxCell id="xoWKOB-SRWg8R9d9Arxa-2" value="" style="html=1;points=[];perimeter=orthogonalPerimeter;outlineConnect=0;targetShapes=umlLifeline;portConstraint=eastwest;newEdgeStyle={&quot;edgeStyle&quot;:&quot;elbowEdgeStyle&quot;,&quot;elbow&quot;:&quot;vertical&quot;,&quot;curved&quot;:0,&quot;rounded&quot;:0};" parent="xoWKOB-SRWg8R9d9Arxa-1" vertex="1">
          <mxGeometry x="45" y="70" width="10" height="280" as="geometry" />
        </mxCell>
        <mxCell id="xoWKOB-SRWg8R9d9Arxa-3" value="&lt;font style=&quot;font-size: 12px;&quot;&gt;Memasukkan URL/ Permintaan mencari&lt;/font&gt;" style="html=1;verticalAlign=bottom;endArrow=block;edgeStyle=elbowEdgeStyle;elbow=horizontal;curved=0;rounded=0;" parent="1" source="xoWKOB-SRWg8R9d9Arxa-2" target="xoWKOB-SRWg8R9d9Arxa-6" edge="1">
          <mxGeometry relative="1" as="geometry">
            <mxPoint x="925" y="130" as="sourcePoint" />
            <Array as="points">
              <mxPoint x="910" y="120" />
            </Array>
            <mxPoint as="offset" />
            <mxPoint x="995" y="120" as="targetPoint" />
          </mxGeometry>
        </mxCell>
        <mxCell id="xoWKOB-SRWg8R9d9Arxa-4" value="" style="edgeStyle=elbowEdgeStyle;rounded=0;orthogonalLoop=1;jettySize=auto;html=1;elbow=vertical;curved=0;" parent="1" source="xoWKOB-SRWg8R9d9Arxa-6" edge="1">
          <mxGeometry relative="1" as="geometry">
            <mxPoint x="1024" y="230" as="sourcePoint" />
            <mxPoint x="824" y="230" as="targetPoint" />
          </mxGeometry>
        </mxCell>
        <mxCell id="xoWKOB-SRWg8R9d9Arxa-5" value="Current Browser" style="shape=umlLifeline;perimeter=lifelinePerimeter;whiteSpace=wrap;html=1;container=0;dropTarget=0;collapsible=0;recursiveResize=0;outlineConnect=0;portConstraint=eastwest;newEdgeStyle={&quot;edgeStyle&quot;:&quot;elbowEdgeStyle&quot;,&quot;elbow&quot;:&quot;vertical&quot;,&quot;curved&quot;:0,&quot;rounded&quot;:0};" parent="1" vertex="1">
          <mxGeometry x="970" y="30" width="100" height="350" as="geometry" />
        </mxCell>
        <mxCell id="xoWKOB-SRWg8R9d9Arxa-6" value="" style="html=1;points=[];perimeter=orthogonalPerimeter;outlineConnect=0;targetShapes=umlLifeline;portConstraint=eastwest;newEdgeStyle={&quot;edgeStyle&quot;:&quot;elbowEdgeStyle&quot;,&quot;elbow&quot;:&quot;vertical&quot;,&quot;curved&quot;:0,&quot;rounded&quot;:0};" parent="xoWKOB-SRWg8R9d9Arxa-5" vertex="1">
          <mxGeometry x="45" y="80" width="10" height="270" as="geometry" />
        </mxCell>
        <mxCell id="xoWKOB-SRWg8R9d9Arxa-7" value="Web Server" style="shape=umlLifeline;perimeter=lifelinePerimeter;whiteSpace=wrap;html=1;container=0;dropTarget=0;collapsible=0;recursiveResize=0;outlineConnect=0;portConstraint=eastwest;newEdgeStyle={&quot;edgeStyle&quot;:&quot;elbowEdgeStyle&quot;,&quot;elbow&quot;:&quot;vertical&quot;,&quot;curved&quot;:0,&quot;rounded&quot;:0};" parent="1" vertex="1">
          <mxGeometry x="1220" y="30" width="100" height="350" as="geometry" />
        </mxCell>
        <mxCell id="xoWKOB-SRWg8R9d9Arxa-8" value="" style="html=1;points=[];perimeter=orthogonalPerimeter;outlineConnect=0;targetShapes=umlLifeline;portConstraint=eastwest;newEdgeStyle={&quot;edgeStyle&quot;:&quot;elbowEdgeStyle&quot;,&quot;elbow&quot;:&quot;vertical&quot;,&quot;curved&quot;:0,&quot;rounded&quot;:0};" parent="xoWKOB-SRWg8R9d9Arxa-7" vertex="1">
          <mxGeometry x="45" y="80" width="10" height="270" as="geometry" />
        </mxCell>
        <mxCell id="xoWKOB-SRWg8R9d9Arxa-9" value="&lt;font style=&quot;font-size: 12px;&quot;&gt;Mengirimkan informasi&lt;/font&gt;" style="html=1;verticalAlign=bottom;endArrow=block;edgeStyle=elbowEdgeStyle;elbow=horizontal;curved=0;rounded=0;" parent="1" edge="1">
          <mxGeometry relative="1" as="geometry">
            <mxPoint x="1026" y="140" as="sourcePoint" />
            <Array as="points">
              <mxPoint x="1231" y="115" />
            </Array>
            <mxPoint x="1267.5" y="140" as="targetPoint" />
            <mxPoint as="offset" />
          </mxGeometry>
        </mxCell>
        <mxCell id="xoWKOB-SRWg8R9d9Arxa-10" value="&lt;b&gt;Navigasi Mundur&lt;/b&gt;" style="text;strokeColor=none;fillColor=none;align=left;verticalAlign=top;spacingLeft=4;spacingRight=4;overflow=hidden;rotatable=0;points=[[0,0.5],[1,0.5]];portConstraint=eastwest;whiteSpace=wrap;html=1;" parent="1" vertex="1">
          <mxGeometry x="760" y="-26" width="170" height="26" as="geometry" />
        </mxCell>
        <mxCell id="xoWKOB-SRWg8R9d9Arxa-11" value="Menampilkan hasil informasi" style="text;strokeColor=none;fillColor=none;align=left;verticalAlign=top;spacingLeft=4;spacingRight=4;overflow=hidden;rotatable=0;points=[[0,0.5],[1,0.5]];portConstraint=eastwest;whiteSpace=wrap;html=1;" parent="1" vertex="1">
          <mxGeometry x="870" y="195" width="120" height="40" as="geometry" />
        </mxCell>
        <mxCell id="xoWKOB-SRWg8R9d9Arxa-12" value="" style="edgeStyle=elbowEdgeStyle;rounded=0;orthogonalLoop=1;jettySize=auto;html=1;elbow=vertical;curved=0;" parent="1" target="xoWKOB-SRWg8R9d9Arxa-6" edge="1">
          <mxGeometry relative="1" as="geometry">
            <mxPoint x="1265.5" y="190" as="sourcePoint" />
            <mxPoint x="1030" y="190" as="targetPoint" />
          </mxGeometry>
        </mxCell>
        <mxCell id="xoWKOB-SRWg8R9d9Arxa-13" value="Mengirimkan informasi" style="text;html=1;align=center;verticalAlign=middle;resizable=0;points=[];autosize=1;strokeColor=none;fillColor=none;" parent="1" vertex="1">
          <mxGeometry x="1080" y="165" width="140" height="30" as="geometry" />
        </mxCell>
        <mxCell id="xoWKOB-SRWg8R9d9Arxa-16" value="&lt;font style=&quot;font-size: 12px;&quot;&gt;Klik Back halaman&lt;/font&gt;" style="html=1;verticalAlign=bottom;endArrow=block;edgeStyle=elbowEdgeStyle;elbow=vertical;curved=0;rounded=0;" parent="1" edge="1">
          <mxGeometry relative="1" as="geometry">
            <mxPoint x="826" y="270" as="sourcePoint" />
            <Array as="points">
              <mxPoint x="911" y="270" />
            </Array>
            <mxPoint as="offset" />
            <mxPoint x="1016" y="270" as="targetPoint" />
          </mxGeometry>
        </mxCell>
        <mxCell id="xoWKOB-SRWg8R9d9Arxa-17" value="&lt;font style=&quot;font-size: 12px;&quot;&gt;Permintaan untuk mundur ke halaman sebelumnya&lt;/font&gt;" style="html=1;verticalAlign=bottom;endArrow=block;edgeStyle=elbowEdgeStyle;elbow=horizontal;curved=0;rounded=0;" parent="1" edge="1">
          <mxGeometry relative="1" as="geometry">
            <mxPoint x="1025.25" y="290" as="sourcePoint" />
            <Array as="points">
              <mxPoint x="1110.25" y="290" />
            </Array>
            <mxPoint as="offset" />
            <mxPoint x="1264.75" y="290" as="targetPoint" />
          </mxGeometry>
        </mxCell>
        <mxCell id="pUAWPXZUTIxpWZgFTHlC-2" value="" style="edgeStyle=elbowEdgeStyle;rounded=0;orthogonalLoop=1;jettySize=auto;html=1;elbow=vertical;curved=0;" parent="1" edge="1">
          <mxGeometry relative="1" as="geometry">
            <mxPoint x="1265.5" y="329" as="sourcePoint" />
            <mxPoint x="1025" y="329" as="targetPoint" />
          </mxGeometry>
        </mxCell>
        <mxCell id="pUAWPXZUTIxpWZgFTHlC-3" value="Mengembalikan halaman sebelumnya" style="text;html=1;align=center;verticalAlign=middle;resizable=0;points=[];autosize=1;strokeColor=none;fillColor=none;" parent="1" vertex="1">
          <mxGeometry x="1035" y="300" width="230" height="30" as="geometry" />
        </mxCell>
        <mxCell id="pUAWPXZUTIxpWZgFTHlC-4" value="User" style="shape=umlLifeline;perimeter=lifelinePerimeter;whiteSpace=wrap;html=1;container=0;dropTarget=0;collapsible=0;recursiveResize=0;outlineConnect=0;portConstraint=eastwest;newEdgeStyle={&quot;edgeStyle&quot;:&quot;elbowEdgeStyle&quot;,&quot;elbow&quot;:&quot;vertical&quot;,&quot;curved&quot;:0,&quot;rounded&quot;:0};" parent="1" vertex="1">
          <mxGeometry x="1460" y="56" width="100" height="350" as="geometry" />
        </mxCell>
        <mxCell id="pUAWPXZUTIxpWZgFTHlC-5" value="" style="html=1;points=[];perimeter=orthogonalPerimeter;outlineConnect=0;targetShapes=umlLifeline;portConstraint=eastwest;newEdgeStyle={&quot;edgeStyle&quot;:&quot;elbowEdgeStyle&quot;,&quot;elbow&quot;:&quot;vertical&quot;,&quot;curved&quot;:0,&quot;rounded&quot;:0};" parent="pUAWPXZUTIxpWZgFTHlC-4" vertex="1">
          <mxGeometry x="45" y="70" width="10" height="280" as="geometry" />
        </mxCell>
        <mxCell id="pUAWPXZUTIxpWZgFTHlC-6" value="&lt;font style=&quot;font-size: 12px;&quot;&gt;Memasukkan URL/ Permintaan mencari&lt;/font&gt;" style="html=1;verticalAlign=bottom;endArrow=block;edgeStyle=elbowEdgeStyle;elbow=horizontal;curved=0;rounded=0;" parent="1" source="pUAWPXZUTIxpWZgFTHlC-5" target="pUAWPXZUTIxpWZgFTHlC-9" edge="1">
          <mxGeometry relative="1" as="geometry">
            <mxPoint x="1615" y="156" as="sourcePoint" />
            <Array as="points">
              <mxPoint x="1600" y="146" />
            </Array>
            <mxPoint as="offset" />
            <mxPoint x="1685" y="146" as="targetPoint" />
          </mxGeometry>
        </mxCell>
        <mxCell id="pUAWPXZUTIxpWZgFTHlC-7" value="" style="edgeStyle=elbowEdgeStyle;rounded=0;orthogonalLoop=1;jettySize=auto;html=1;elbow=vertical;curved=0;" parent="1" source="pUAWPXZUTIxpWZgFTHlC-9" edge="1">
          <mxGeometry relative="1" as="geometry">
            <mxPoint x="1714" y="256" as="sourcePoint" />
            <mxPoint x="1514" y="256" as="targetPoint" />
          </mxGeometry>
        </mxCell>
        <mxCell id="pUAWPXZUTIxpWZgFTHlC-8" value="Current Browser" style="shape=umlLifeline;perimeter=lifelinePerimeter;whiteSpace=wrap;html=1;container=0;dropTarget=0;collapsible=0;recursiveResize=0;outlineConnect=0;portConstraint=eastwest;newEdgeStyle={&quot;edgeStyle&quot;:&quot;elbowEdgeStyle&quot;,&quot;elbow&quot;:&quot;vertical&quot;,&quot;curved&quot;:0,&quot;rounded&quot;:0};" parent="1" vertex="1">
          <mxGeometry x="1660" y="56" width="100" height="350" as="geometry" />
        </mxCell>
        <mxCell id="pUAWPXZUTIxpWZgFTHlC-9" value="" style="html=1;points=[];perimeter=orthogonalPerimeter;outlineConnect=0;targetShapes=umlLifeline;portConstraint=eastwest;newEdgeStyle={&quot;edgeStyle&quot;:&quot;elbowEdgeStyle&quot;,&quot;elbow&quot;:&quot;vertical&quot;,&quot;curved&quot;:0,&quot;rounded&quot;:0};" parent="pUAWPXZUTIxpWZgFTHlC-8" vertex="1">
          <mxGeometry x="45" y="80" width="10" height="270" as="geometry" />
        </mxCell>
        <mxCell id="pUAWPXZUTIxpWZgFTHlC-10" value="Web Server" style="shape=umlLifeline;perimeter=lifelinePerimeter;whiteSpace=wrap;html=1;container=0;dropTarget=0;collapsible=0;recursiveResize=0;outlineConnect=0;portConstraint=eastwest;newEdgeStyle={&quot;edgeStyle&quot;:&quot;elbowEdgeStyle&quot;,&quot;elbow&quot;:&quot;vertical&quot;,&quot;curved&quot;:0,&quot;rounded&quot;:0};" parent="1" vertex="1">
          <mxGeometry x="1910" y="56" width="100" height="350" as="geometry" />
        </mxCell>
        <mxCell id="pUAWPXZUTIxpWZgFTHlC-11" value="" style="html=1;points=[];perimeter=orthogonalPerimeter;outlineConnect=0;targetShapes=umlLifeline;portConstraint=eastwest;newEdgeStyle={&quot;edgeStyle&quot;:&quot;elbowEdgeStyle&quot;,&quot;elbow&quot;:&quot;vertical&quot;,&quot;curved&quot;:0,&quot;rounded&quot;:0};" parent="pUAWPXZUTIxpWZgFTHlC-10" vertex="1">
          <mxGeometry x="45" y="80" width="10" height="270" as="geometry" />
        </mxCell>
        <mxCell id="pUAWPXZUTIxpWZgFTHlC-12" value="&lt;font style=&quot;font-size: 12px;&quot;&gt;Mengirimkan informasi&lt;/font&gt;" style="html=1;verticalAlign=bottom;endArrow=block;edgeStyle=elbowEdgeStyle;elbow=horizontal;curved=0;rounded=0;" parent="1" edge="1">
          <mxGeometry relative="1" as="geometry">
            <mxPoint x="1716" y="166" as="sourcePoint" />
            <Array as="points">
              <mxPoint x="1921" y="141" />
            </Array>
            <mxPoint x="1957.5" y="166" as="targetPoint" />
            <mxPoint as="offset" />
          </mxGeometry>
        </mxCell>
        <mxCell id="pUAWPXZUTIxpWZgFTHlC-13" value="&lt;b&gt;Navigasi Maju&lt;/b&gt;" style="text;strokeColor=none;fillColor=none;align=left;verticalAlign=top;spacingLeft=4;spacingRight=4;overflow=hidden;rotatable=0;points=[[0,0.5],[1,0.5]];portConstraint=eastwest;whiteSpace=wrap;html=1;" parent="1" vertex="1">
          <mxGeometry x="1450" width="170" height="26" as="geometry" />
        </mxCell>
        <mxCell id="pUAWPXZUTIxpWZgFTHlC-14" value="Menampilkan hasil informasi" style="text;strokeColor=none;fillColor=none;align=left;verticalAlign=top;spacingLeft=4;spacingRight=4;overflow=hidden;rotatable=0;points=[[0,0.5],[1,0.5]];portConstraint=eastwest;whiteSpace=wrap;html=1;" parent="1" vertex="1">
          <mxGeometry x="1560" y="221" width="120" height="40" as="geometry" />
        </mxCell>
        <mxCell id="pUAWPXZUTIxpWZgFTHlC-15" value="" style="edgeStyle=elbowEdgeStyle;rounded=0;orthogonalLoop=1;jettySize=auto;html=1;elbow=vertical;curved=0;" parent="1" target="pUAWPXZUTIxpWZgFTHlC-9" edge="1">
          <mxGeometry relative="1" as="geometry">
            <mxPoint x="1955.5" y="216" as="sourcePoint" />
            <mxPoint x="1720" y="216" as="targetPoint" />
          </mxGeometry>
        </mxCell>
        <mxCell id="pUAWPXZUTIxpWZgFTHlC-16" value="Mengirimkan informasi" style="text;html=1;align=center;verticalAlign=middle;resizable=0;points=[];autosize=1;strokeColor=none;fillColor=none;" parent="1" vertex="1">
          <mxGeometry x="1770" y="191" width="140" height="30" as="geometry" />
        </mxCell>
        <mxCell id="pUAWPXZUTIxpWZgFTHlC-17" value="&lt;font style=&quot;font-size: 12px;&quot;&gt;Klik Forward Halaman&lt;/font&gt;" style="html=1;verticalAlign=bottom;endArrow=block;edgeStyle=elbowEdgeStyle;elbow=horizontal;curved=0;rounded=0;" parent="1" edge="1">
          <mxGeometry relative="1" as="geometry">
            <mxPoint x="1516" y="296" as="sourcePoint" />
            <Array as="points">
              <mxPoint x="1601" y="296" />
            </Array>
            <mxPoint as="offset" />
            <mxPoint x="1706" y="296" as="targetPoint" />
          </mxGeometry>
        </mxCell>
        <mxCell id="pUAWPXZUTIxpWZgFTHlC-18" value="&lt;font style=&quot;font-size: 12px;&quot;&gt;Permintaan untuk maju ke halaman berikutnya&lt;/font&gt;" style="html=1;verticalAlign=bottom;endArrow=block;edgeStyle=elbowEdgeStyle;elbow=vertical;curved=0;rounded=0;" parent="1" edge="1">
          <mxGeometry relative="1" as="geometry">
            <mxPoint x="1715.25" y="316" as="sourcePoint" />
            <Array as="points">
              <mxPoint x="1800.25" y="316" />
            </Array>
            <mxPoint as="offset" />
            <mxPoint x="1954.75" y="316" as="targetPoint" />
          </mxGeometry>
        </mxCell>
        <mxCell id="pUAWPXZUTIxpWZgFTHlC-19" value="" style="edgeStyle=elbowEdgeStyle;rounded=0;orthogonalLoop=1;jettySize=auto;html=1;elbow=vertical;curved=0;" parent="1" edge="1">
          <mxGeometry relative="1" as="geometry">
            <mxPoint x="1955.25" y="367" as="sourcePoint" />
            <mxPoint x="1714.75" y="367" as="targetPoint" />
          </mxGeometry>
        </mxCell>
        <mxCell id="pUAWPXZUTIxpWZgFTHlC-20" value="Mengembalikan halaman berikutnya" style="text;html=1;align=center;verticalAlign=middle;resizable=0;points=[];autosize=1;strokeColor=none;fillColor=none;" parent="1" vertex="1">
          <mxGeometry x="1730" y="343" width="220" height="30" as="geometry" />
        </mxCell>
        <mxCell id="pUAWPXZUTIxpWZgFTHlC-22" value="" style="edgeStyle=elbowEdgeStyle;rounded=0;orthogonalLoop=1;jettySize=auto;html=1;elbow=vertical;curved=0;" parent="1" source="xoWKOB-SRWg8R9d9Arxa-6" edge="1">
          <mxGeometry relative="1" as="geometry">
            <mxPoint x="1010" y="350" as="sourcePoint" />
            <mxPoint x="820" y="340" as="targetPoint" />
          </mxGeometry>
        </mxCell>
        <mxCell id="pUAWPXZUTIxpWZgFTHlC-23" value="Menampilkan halaman sebelumnya" style="text;html=1;align=center;verticalAlign=middle;resizable=0;points=[];autosize=1;strokeColor=none;fillColor=none;" parent="1" vertex="1">
          <mxGeometry x="810" y="310" width="210" height="30" as="geometry" />
        </mxCell>
        <mxCell id="pUAWPXZUTIxpWZgFTHlC-26" value="Menampilkan halaman berikutnya" style="text;html=1;align=center;verticalAlign=middle;resizable=0;points=[];autosize=1;strokeColor=none;fillColor=none;" parent="1" vertex="1">
          <mxGeometry x="1511" y="354" width="200" height="30" as="geometry" />
        </mxCell>
        <mxCell id="pUAWPXZUTIxpWZgFTHlC-27" value="" style="edgeStyle=elbowEdgeStyle;rounded=0;orthogonalLoop=1;jettySize=auto;html=1;elbow=vertical;curved=0;exitX=0.5;exitY=0.904;exitDx=0;exitDy=0;exitPerimeter=0;" parent="1" edge="1">
          <mxGeometry relative="1" as="geometry">
            <mxPoint x="1705" y="380.0799999999999" as="sourcePoint" />
            <mxPoint x="1515" y="380" as="targetPoint" />
          </mxGeometry>
        </mxCell>
        <mxCell id="pUAWPXZUTIxpWZgFTHlC-28" value="User" style="shape=umlLifeline;perimeter=lifelinePerimeter;whiteSpace=wrap;html=1;container=0;dropTarget=0;collapsible=0;recursiveResize=0;outlineConnect=0;portConstraint=eastwest;newEdgeStyle={&quot;edgeStyle&quot;:&quot;elbowEdgeStyle&quot;,&quot;elbow&quot;:&quot;vertical&quot;,&quot;curved&quot;:0,&quot;rounded&quot;:0};" parent="1" vertex="1">
          <mxGeometry x="50" y="496" width="100" height="350" as="geometry" />
        </mxCell>
        <mxCell id="pUAWPXZUTIxpWZgFTHlC-29" value="" style="html=1;points=[];perimeter=orthogonalPerimeter;outlineConnect=0;targetShapes=umlLifeline;portConstraint=eastwest;newEdgeStyle={&quot;edgeStyle&quot;:&quot;elbowEdgeStyle&quot;,&quot;elbow&quot;:&quot;vertical&quot;,&quot;curved&quot;:0,&quot;rounded&quot;:0};" parent="pUAWPXZUTIxpWZgFTHlC-28" vertex="1">
          <mxGeometry x="45" y="70" width="10" height="280" as="geometry" />
        </mxCell>
        <mxCell id="pUAWPXZUTIxpWZgFTHlC-30" value="Memasukkan URL/ Permintaan mencari" style="html=1;verticalAlign=bottom;endArrow=block;edgeStyle=elbowEdgeStyle;elbow=horizontal;curved=0;rounded=0;" parent="1" source="pUAWPXZUTIxpWZgFTHlC-29" target="pUAWPXZUTIxpWZgFTHlC-33" edge="1">
          <mxGeometry relative="1" as="geometry">
            <mxPoint x="205" y="596" as="sourcePoint" />
            <Array as="points">
              <mxPoint x="190" y="586" />
            </Array>
            <mxPoint as="offset" />
            <mxPoint x="275" y="586" as="targetPoint" />
          </mxGeometry>
        </mxCell>
        <mxCell id="pUAWPXZUTIxpWZgFTHlC-31" value="" style="edgeStyle=elbowEdgeStyle;rounded=0;orthogonalLoop=1;jettySize=auto;html=1;elbow=vertical;curved=0;" parent="1" source="pUAWPXZUTIxpWZgFTHlC-33" edge="1">
          <mxGeometry relative="1" as="geometry">
            <mxPoint x="304" y="696" as="sourcePoint" />
            <mxPoint x="104" y="696" as="targetPoint" />
          </mxGeometry>
        </mxCell>
        <mxCell id="pUAWPXZUTIxpWZgFTHlC-32" value="Current Browser" style="shape=umlLifeline;perimeter=lifelinePerimeter;whiteSpace=wrap;html=1;container=0;dropTarget=0;collapsible=0;recursiveResize=0;outlineConnect=0;portConstraint=eastwest;newEdgeStyle={&quot;edgeStyle&quot;:&quot;elbowEdgeStyle&quot;,&quot;elbow&quot;:&quot;vertical&quot;,&quot;curved&quot;:0,&quot;rounded&quot;:0};" parent="1" vertex="1">
          <mxGeometry x="250" y="496" width="100" height="350" as="geometry" />
        </mxCell>
        <mxCell id="pUAWPXZUTIxpWZgFTHlC-33" value="" style="html=1;points=[];perimeter=orthogonalPerimeter;outlineConnect=0;targetShapes=umlLifeline;portConstraint=eastwest;newEdgeStyle={&quot;edgeStyle&quot;:&quot;elbowEdgeStyle&quot;,&quot;elbow&quot;:&quot;vertical&quot;,&quot;curved&quot;:0,&quot;rounded&quot;:0};" parent="pUAWPXZUTIxpWZgFTHlC-32" vertex="1">
          <mxGeometry x="45" y="80" width="10" height="270" as="geometry" />
        </mxCell>
        <mxCell id="pUAWPXZUTIxpWZgFTHlC-34" value="Web Server" style="shape=umlLifeline;perimeter=lifelinePerimeter;whiteSpace=wrap;html=1;container=0;dropTarget=0;collapsible=0;recursiveResize=0;outlineConnect=0;portConstraint=eastwest;newEdgeStyle={&quot;edgeStyle&quot;:&quot;elbowEdgeStyle&quot;,&quot;elbow&quot;:&quot;vertical&quot;,&quot;curved&quot;:0,&quot;rounded&quot;:0};" parent="1" vertex="1">
          <mxGeometry x="500" y="496" width="100" height="350" as="geometry" />
        </mxCell>
        <mxCell id="pUAWPXZUTIxpWZgFTHlC-35" value="" style="html=1;points=[];perimeter=orthogonalPerimeter;outlineConnect=0;targetShapes=umlLifeline;portConstraint=eastwest;newEdgeStyle={&quot;edgeStyle&quot;:&quot;elbowEdgeStyle&quot;,&quot;elbow&quot;:&quot;vertical&quot;,&quot;curved&quot;:0,&quot;rounded&quot;:0};" parent="pUAWPXZUTIxpWZgFTHlC-34" vertex="1">
          <mxGeometry x="45" y="80" width="10" height="270" as="geometry" />
        </mxCell>
        <mxCell id="pUAWPXZUTIxpWZgFTHlC-36" value="Mengirimkan informasi" style="html=1;verticalAlign=bottom;endArrow=block;edgeStyle=elbowEdgeStyle;elbow=horizontal;curved=0;rounded=0;" parent="1" edge="1">
          <mxGeometry relative="1" as="geometry">
            <mxPoint x="306" y="606" as="sourcePoint" />
            <Array as="points">
              <mxPoint x="511" y="581" />
            </Array>
            <mxPoint x="547.5" y="606" as="targetPoint" />
            <mxPoint as="offset" />
          </mxGeometry>
        </mxCell>
        <mxCell id="pUAWPXZUTIxpWZgFTHlC-37" value="&lt;b&gt;Refresh halaman&lt;/b&gt;" style="text;strokeColor=none;fillColor=none;align=left;verticalAlign=top;spacingLeft=4;spacingRight=4;overflow=hidden;rotatable=0;points=[[0,0.5],[1,0.5]];portConstraint=eastwest;whiteSpace=wrap;html=1;" parent="1" vertex="1">
          <mxGeometry x="40" y="440" width="170" height="26" as="geometry" />
        </mxCell>
        <mxCell id="pUAWPXZUTIxpWZgFTHlC-38" value="Menampilkan hasil informasi" style="text;strokeColor=none;fillColor=none;align=left;verticalAlign=top;spacingLeft=4;spacingRight=4;overflow=hidden;rotatable=0;points=[[0,0.5],[1,0.5]];portConstraint=eastwest;whiteSpace=wrap;html=1;" parent="1" vertex="1">
          <mxGeometry x="150" y="661" width="120" height="40" as="geometry" />
        </mxCell>
        <mxCell id="pUAWPXZUTIxpWZgFTHlC-39" value="" style="edgeStyle=elbowEdgeStyle;rounded=0;orthogonalLoop=1;jettySize=auto;html=1;elbow=vertical;curved=0;" parent="1" target="pUAWPXZUTIxpWZgFTHlC-33" edge="1">
          <mxGeometry relative="1" as="geometry">
            <mxPoint x="545.5" y="656" as="sourcePoint" />
            <mxPoint x="310" y="656" as="targetPoint" />
          </mxGeometry>
        </mxCell>
        <mxCell id="pUAWPXZUTIxpWZgFTHlC-40" value="Mengirimkan informasi" style="text;html=1;align=center;verticalAlign=middle;resizable=0;points=[];autosize=1;strokeColor=none;fillColor=none;" parent="1" vertex="1">
          <mxGeometry x="360" y="631" width="140" height="30" as="geometry" />
        </mxCell>
        <mxCell id="pUAWPXZUTIxpWZgFTHlC-41" value="Klik refresh Halaman" style="html=1;verticalAlign=bottom;endArrow=block;edgeStyle=elbowEdgeStyle;elbow=horizontal;curved=0;rounded=0;" parent="1" edge="1">
          <mxGeometry relative="1" as="geometry">
            <mxPoint x="106" y="736" as="sourcePoint" />
            <Array as="points">
              <mxPoint x="191" y="736" />
            </Array>
            <mxPoint as="offset" />
            <mxPoint x="296" y="736" as="targetPoint" />
          </mxGeometry>
        </mxCell>
        <mxCell id="pUAWPXZUTIxpWZgFTHlC-42" value="Permintaan untuk memuat ulang halaman" style="html=1;verticalAlign=bottom;endArrow=block;edgeStyle=elbowEdgeStyle;elbow=horizontal;curved=0;rounded=0;" parent="1" edge="1">
          <mxGeometry relative="1" as="geometry">
            <mxPoint x="305.25" y="756" as="sourcePoint" />
            <Array as="points">
              <mxPoint x="390.25" y="756" />
            </Array>
            <mxPoint as="offset" />
            <mxPoint x="544.75" y="756" as="targetPoint" />
          </mxGeometry>
        </mxCell>
        <mxCell id="pUAWPXZUTIxpWZgFTHlC-43" value="" style="edgeStyle=elbowEdgeStyle;rounded=0;orthogonalLoop=1;jettySize=auto;html=1;elbow=vertical;curved=0;" parent="1" edge="1">
          <mxGeometry relative="1" as="geometry">
            <mxPoint x="545.25" y="807" as="sourcePoint" />
            <mxPoint x="304.75" y="807" as="targetPoint" />
          </mxGeometry>
        </mxCell>
        <mxCell id="pUAWPXZUTIxpWZgFTHlC-44" value="Memberikan halaman yang diminta" style="text;html=1;align=center;verticalAlign=middle;resizable=0;points=[];autosize=1;strokeColor=none;fillColor=none;" parent="1" vertex="1">
          <mxGeometry x="325" y="783" width="210" height="30" as="geometry" />
        </mxCell>
        <mxCell id="pUAWPXZUTIxpWZgFTHlC-45" value="Menampilkan halaman yang dimuat ulang" style="text;html=1;align=center;verticalAlign=middle;resizable=0;points=[];autosize=1;strokeColor=none;fillColor=none;" parent="1" vertex="1">
          <mxGeometry x="76" y="794" width="250" height="30" as="geometry" />
        </mxCell>
        <mxCell id="pUAWPXZUTIxpWZgFTHlC-46" value="" style="edgeStyle=elbowEdgeStyle;rounded=0;orthogonalLoop=1;jettySize=auto;html=1;elbow=vertical;curved=0;exitX=0.5;exitY=0.904;exitDx=0;exitDy=0;exitPerimeter=0;" parent="1" edge="1">
          <mxGeometry relative="1" as="geometry">
            <mxPoint x="295" y="820.0799999999999" as="sourcePoint" />
            <mxPoint x="105" y="820" as="targetPoint" />
          </mxGeometry>
        </mxCell>
        <mxCell id="pUAWPXZUTIxpWZgFTHlC-48" value="User" style="shape=umlLifeline;perimeter=lifelinePerimeter;whiteSpace=wrap;html=1;container=0;dropTarget=0;collapsible=0;recursiveResize=0;outlineConnect=0;portConstraint=eastwest;newEdgeStyle={&quot;edgeStyle&quot;:&quot;elbowEdgeStyle&quot;,&quot;elbow&quot;:&quot;vertical&quot;,&quot;curved&quot;:0,&quot;rounded&quot;:0};" parent="1" vertex="1">
          <mxGeometry x="800" y="522" width="100" height="350" as="geometry" />
        </mxCell>
        <mxCell id="pUAWPXZUTIxpWZgFTHlC-49" value="" style="html=1;points=[];perimeter=orthogonalPerimeter;outlineConnect=0;targetShapes=umlLifeline;portConstraint=eastwest;newEdgeStyle={&quot;edgeStyle&quot;:&quot;elbowEdgeStyle&quot;,&quot;elbow&quot;:&quot;vertical&quot;,&quot;curved&quot;:0,&quot;rounded&quot;:0};" parent="pUAWPXZUTIxpWZgFTHlC-48" vertex="1">
          <mxGeometry x="45" y="70" width="10" height="280" as="geometry" />
        </mxCell>
        <mxCell id="pUAWPXZUTIxpWZgFTHlC-50" value="&lt;font style=&quot;font-size: 12px;&quot;&gt;Memasukkan URL/ Permintaan mencari&lt;/font&gt;" style="html=1;verticalAlign=bottom;endArrow=block;edgeStyle=elbowEdgeStyle;elbow=vertical;curved=0;rounded=0;" parent="1" source="pUAWPXZUTIxpWZgFTHlC-49" target="pUAWPXZUTIxpWZgFTHlC-53" edge="1">
          <mxGeometry relative="1" as="geometry">
            <mxPoint x="955" y="622" as="sourcePoint" />
            <Array as="points">
              <mxPoint x="940" y="612" />
            </Array>
            <mxPoint as="offset" />
            <mxPoint x="1025" y="612" as="targetPoint" />
          </mxGeometry>
        </mxCell>
        <mxCell id="pUAWPXZUTIxpWZgFTHlC-51" value="" style="edgeStyle=elbowEdgeStyle;rounded=0;orthogonalLoop=1;jettySize=auto;html=1;elbow=vertical;curved=0;" parent="1" source="pUAWPXZUTIxpWZgFTHlC-53" edge="1">
          <mxGeometry relative="1" as="geometry">
            <mxPoint x="1054" y="722" as="sourcePoint" />
            <mxPoint x="854" y="722" as="targetPoint" />
          </mxGeometry>
        </mxCell>
        <mxCell id="pUAWPXZUTIxpWZgFTHlC-52" value="Current Browser" style="shape=umlLifeline;perimeter=lifelinePerimeter;whiteSpace=wrap;html=1;container=0;dropTarget=0;collapsible=0;recursiveResize=0;outlineConnect=0;portConstraint=eastwest;newEdgeStyle={&quot;edgeStyle&quot;:&quot;elbowEdgeStyle&quot;,&quot;elbow&quot;:&quot;vertical&quot;,&quot;curved&quot;:0,&quot;rounded&quot;:0};" parent="1" vertex="1">
          <mxGeometry x="1000" y="522" width="100" height="350" as="geometry" />
        </mxCell>
        <mxCell id="pUAWPXZUTIxpWZgFTHlC-53" value="" style="html=1;points=[];perimeter=orthogonalPerimeter;outlineConnect=0;targetShapes=umlLifeline;portConstraint=eastwest;newEdgeStyle={&quot;edgeStyle&quot;:&quot;elbowEdgeStyle&quot;,&quot;elbow&quot;:&quot;vertical&quot;,&quot;curved&quot;:0,&quot;rounded&quot;:0};" parent="pUAWPXZUTIxpWZgFTHlC-52" vertex="1">
          <mxGeometry x="45" y="80" width="10" height="270" as="geometry" />
        </mxCell>
        <mxCell id="pUAWPXZUTIxpWZgFTHlC-54" value="Web Server" style="shape=umlLifeline;perimeter=lifelinePerimeter;whiteSpace=wrap;html=1;container=0;dropTarget=0;collapsible=0;recursiveResize=0;outlineConnect=0;portConstraint=eastwest;newEdgeStyle={&quot;edgeStyle&quot;:&quot;elbowEdgeStyle&quot;,&quot;elbow&quot;:&quot;vertical&quot;,&quot;curved&quot;:0,&quot;rounded&quot;:0};" parent="1" vertex="1">
          <mxGeometry x="1250" y="522" width="100" height="350" as="geometry" />
        </mxCell>
        <mxCell id="pUAWPXZUTIxpWZgFTHlC-55" value="" style="html=1;points=[];perimeter=orthogonalPerimeter;outlineConnect=0;targetShapes=umlLifeline;portConstraint=eastwest;newEdgeStyle={&quot;edgeStyle&quot;:&quot;elbowEdgeStyle&quot;,&quot;elbow&quot;:&quot;vertical&quot;,&quot;curved&quot;:0,&quot;rounded&quot;:0};" parent="pUAWPXZUTIxpWZgFTHlC-54" vertex="1">
          <mxGeometry x="45" y="80" width="10" height="270" as="geometry" />
        </mxCell>
        <mxCell id="pUAWPXZUTIxpWZgFTHlC-56" value="&lt;font style=&quot;font-size: 12px;&quot;&gt;Mengirimkan informasi&lt;/font&gt;" style="html=1;verticalAlign=bottom;endArrow=block;edgeStyle=elbowEdgeStyle;elbow=horizontal;curved=0;rounded=0;" parent="1" edge="1">
          <mxGeometry relative="1" as="geometry">
            <mxPoint x="1056" y="632" as="sourcePoint" />
            <Array as="points">
              <mxPoint x="1261" y="607" />
            </Array>
            <mxPoint x="1297.5" y="632" as="targetPoint" />
            <mxPoint as="offset" />
          </mxGeometry>
        </mxCell>
        <mxCell id="pUAWPXZUTIxpWZgFTHlC-57" value="&lt;b&gt;Menampilkan halaman home&lt;/b&gt;" style="text;strokeColor=none;fillColor=none;align=left;verticalAlign=top;spacingLeft=4;spacingRight=4;overflow=hidden;rotatable=0;points=[[0,0.5],[1,0.5]];portConstraint=eastwest;whiteSpace=wrap;html=1;" parent="1" vertex="1">
          <mxGeometry x="790" y="466" width="170" height="26" as="geometry" />
        </mxCell>
        <mxCell id="pUAWPXZUTIxpWZgFTHlC-58" value="Menampilkan hasil informasi" style="text;strokeColor=none;fillColor=none;align=left;verticalAlign=top;spacingLeft=4;spacingRight=4;overflow=hidden;rotatable=0;points=[[0,0.5],[1,0.5]];portConstraint=eastwest;whiteSpace=wrap;html=1;" parent="1" vertex="1">
          <mxGeometry x="900" y="687" width="120" height="40" as="geometry" />
        </mxCell>
        <mxCell id="pUAWPXZUTIxpWZgFTHlC-59" value="" style="edgeStyle=elbowEdgeStyle;rounded=0;orthogonalLoop=1;jettySize=auto;html=1;elbow=vertical;curved=0;" parent="1" target="pUAWPXZUTIxpWZgFTHlC-53" edge="1">
          <mxGeometry relative="1" as="geometry">
            <mxPoint x="1295.5" y="682" as="sourcePoint" />
            <mxPoint x="1060" y="682" as="targetPoint" />
          </mxGeometry>
        </mxCell>
        <mxCell id="pUAWPXZUTIxpWZgFTHlC-60" value="Mengirimkan informasi" style="text;html=1;align=center;verticalAlign=middle;resizable=0;points=[];autosize=1;strokeColor=none;fillColor=none;" parent="1" vertex="1">
          <mxGeometry x="1110" y="657" width="140" height="30" as="geometry" />
        </mxCell>
        <mxCell id="pUAWPXZUTIxpWZgFTHlC-61" value="&lt;font style=&quot;font-size: 12px;&quot;&gt;menekan tombol home&lt;/font&gt;" style="html=1;verticalAlign=bottom;endArrow=block;edgeStyle=elbowEdgeStyle;elbow=horizontal;curved=0;rounded=0;" parent="1" edge="1">
          <mxGeometry x="0.0075" relative="1" as="geometry">
            <mxPoint x="856" y="762" as="sourcePoint" />
            <Array as="points">
              <mxPoint x="941" y="762" />
            </Array>
            <mxPoint as="offset" />
            <mxPoint x="1046" y="762" as="targetPoint" />
          </mxGeometry>
        </mxCell>
        <mxCell id="pUAWPXZUTIxpWZgFTHlC-62" value="&lt;font style=&quot;font-size: 12px;&quot;&gt;Permintaan untuk membuka halaman home&lt;/font&gt;" style="html=1;verticalAlign=bottom;endArrow=block;edgeStyle=elbowEdgeStyle;elbow=horizontal;curved=0;rounded=0;" parent="1" edge="1">
          <mxGeometry relative="1" as="geometry">
            <mxPoint x="1055.25" y="782" as="sourcePoint" />
            <Array as="points">
              <mxPoint x="1140.25" y="782" />
            </Array>
            <mxPoint as="offset" />
            <mxPoint x="1294.75" y="782" as="targetPoint" />
          </mxGeometry>
        </mxCell>
        <mxCell id="pUAWPXZUTIxpWZgFTHlC-63" value="" style="edgeStyle=elbowEdgeStyle;rounded=0;orthogonalLoop=1;jettySize=auto;html=1;elbow=vertical;curved=0;" parent="1" edge="1">
          <mxGeometry relative="1" as="geometry">
            <mxPoint x="1295.25" y="833" as="sourcePoint" />
            <mxPoint x="1054.75" y="833" as="targetPoint" />
          </mxGeometry>
        </mxCell>
        <mxCell id="pUAWPXZUTIxpWZgFTHlC-64" value="Memberikan halaman home" style="text;html=1;align=center;verticalAlign=middle;resizable=0;points=[];autosize=1;strokeColor=none;fillColor=none;" parent="1" vertex="1">
          <mxGeometry x="1095" y="809" width="170" height="30" as="geometry" />
        </mxCell>
        <mxCell id="pUAWPXZUTIxpWZgFTHlC-65" value="Menampilkan halaman home" style="text;html=1;align=center;verticalAlign=middle;resizable=0;points=[];autosize=1;strokeColor=none;fillColor=none;" parent="1" vertex="1">
          <mxGeometry x="861" y="820" width="180" height="30" as="geometry" />
        </mxCell>
        <mxCell id="pUAWPXZUTIxpWZgFTHlC-66" value="" style="edgeStyle=elbowEdgeStyle;rounded=0;orthogonalLoop=1;jettySize=auto;html=1;elbow=vertical;curved=0;exitX=0.5;exitY=0.904;exitDx=0;exitDy=0;exitPerimeter=0;" parent="1" edge="1">
          <mxGeometry relative="1" as="geometry">
            <mxPoint x="1045" y="846.0799999999999" as="sourcePoint" />
            <mxPoint x="855" y="846" as="targetPoint" />
          </mxGeometry>
        </mxCell>
        <mxCell id="pUAWPXZUTIxpWZgFTHlC-67" value="User" style="shape=umlLifeline;perimeter=lifelinePerimeter;whiteSpace=wrap;html=1;container=0;dropTarget=0;collapsible=0;recursiveResize=0;outlineConnect=0;portConstraint=eastwest;newEdgeStyle={&quot;edgeStyle&quot;:&quot;elbowEdgeStyle&quot;,&quot;elbow&quot;:&quot;vertical&quot;,&quot;curved&quot;:0,&quot;rounded&quot;:0};" parent="1" vertex="1">
          <mxGeometry x="1500" y="534" width="100" height="350" as="geometry" />
        </mxCell>
        <mxCell id="pUAWPXZUTIxpWZgFTHlC-68" value="" style="html=1;points=[];perimeter=orthogonalPerimeter;outlineConnect=0;targetShapes=umlLifeline;portConstraint=eastwest;newEdgeStyle={&quot;edgeStyle&quot;:&quot;elbowEdgeStyle&quot;,&quot;elbow&quot;:&quot;vertical&quot;,&quot;curved&quot;:0,&quot;rounded&quot;:0};" parent="pUAWPXZUTIxpWZgFTHlC-67" vertex="1">
          <mxGeometry x="45" y="70" width="10" height="280" as="geometry" />
        </mxCell>
        <mxCell id="pUAWPXZUTIxpWZgFTHlC-69" value="&lt;font style=&quot;font-size: 12px;&quot;&gt;Memasukkan URL/ Permintaan mencari&lt;/font&gt;" style="html=1;verticalAlign=bottom;endArrow=block;edgeStyle=elbowEdgeStyle;elbow=horizontal;curved=0;rounded=0;" parent="1" source="pUAWPXZUTIxpWZgFTHlC-68" target="pUAWPXZUTIxpWZgFTHlC-72" edge="1">
          <mxGeometry relative="1" as="geometry">
            <mxPoint x="1655" y="634" as="sourcePoint" />
            <Array as="points">
              <mxPoint x="1640" y="624" />
            </Array>
            <mxPoint as="offset" />
            <mxPoint x="1725" y="624" as="targetPoint" />
          </mxGeometry>
        </mxCell>
        <mxCell id="pUAWPXZUTIxpWZgFTHlC-70" value="" style="edgeStyle=elbowEdgeStyle;rounded=0;orthogonalLoop=1;jettySize=auto;html=1;elbow=vertical;curved=0;" parent="1" source="pUAWPXZUTIxpWZgFTHlC-72" edge="1">
          <mxGeometry relative="1" as="geometry">
            <mxPoint x="1754" y="734" as="sourcePoint" />
            <mxPoint x="1554" y="734" as="targetPoint" />
          </mxGeometry>
        </mxCell>
        <mxCell id="pUAWPXZUTIxpWZgFTHlC-71" value="Current Browser" style="shape=umlLifeline;perimeter=lifelinePerimeter;whiteSpace=wrap;html=1;container=0;dropTarget=0;collapsible=0;recursiveResize=0;outlineConnect=0;portConstraint=eastwest;newEdgeStyle={&quot;edgeStyle&quot;:&quot;elbowEdgeStyle&quot;,&quot;elbow&quot;:&quot;vertical&quot;,&quot;curved&quot;:0,&quot;rounded&quot;:0};" parent="1" vertex="1">
          <mxGeometry x="1700" y="534" width="100" height="350" as="geometry" />
        </mxCell>
        <mxCell id="pUAWPXZUTIxpWZgFTHlC-72" value="" style="html=1;points=[];perimeter=orthogonalPerimeter;outlineConnect=0;targetShapes=umlLifeline;portConstraint=eastwest;newEdgeStyle={&quot;edgeStyle&quot;:&quot;elbowEdgeStyle&quot;,&quot;elbow&quot;:&quot;vertical&quot;,&quot;curved&quot;:0,&quot;rounded&quot;:0};" parent="pUAWPXZUTIxpWZgFTHlC-71" vertex="1">
          <mxGeometry x="45" y="80" width="10" height="270" as="geometry" />
        </mxCell>
        <mxCell id="pUAWPXZUTIxpWZgFTHlC-73" value="Web Server" style="shape=umlLifeline;perimeter=lifelinePerimeter;whiteSpace=wrap;html=1;container=0;dropTarget=0;collapsible=0;recursiveResize=0;outlineConnect=0;portConstraint=eastwest;newEdgeStyle={&quot;edgeStyle&quot;:&quot;elbowEdgeStyle&quot;,&quot;elbow&quot;:&quot;vertical&quot;,&quot;curved&quot;:0,&quot;rounded&quot;:0};" parent="1" vertex="1">
          <mxGeometry x="1950" y="534" width="100" height="350" as="geometry" />
        </mxCell>
        <mxCell id="pUAWPXZUTIxpWZgFTHlC-74" value="" style="html=1;points=[];perimeter=orthogonalPerimeter;outlineConnect=0;targetShapes=umlLifeline;portConstraint=eastwest;newEdgeStyle={&quot;edgeStyle&quot;:&quot;elbowEdgeStyle&quot;,&quot;elbow&quot;:&quot;vertical&quot;,&quot;curved&quot;:0,&quot;rounded&quot;:0};" parent="pUAWPXZUTIxpWZgFTHlC-73" vertex="1">
          <mxGeometry x="45" y="80" width="10" height="270" as="geometry" />
        </mxCell>
        <mxCell id="pUAWPXZUTIxpWZgFTHlC-75" value="&lt;font style=&quot;font-size: 12px;&quot;&gt;Mengirimkan informasi&lt;/font&gt;" style="html=1;verticalAlign=bottom;endArrow=block;edgeStyle=elbowEdgeStyle;elbow=horizontal;curved=0;rounded=0;" parent="1" edge="1">
          <mxGeometry relative="1" as="geometry">
            <mxPoint x="1756" y="644" as="sourcePoint" />
            <Array as="points">
              <mxPoint x="1961" y="619" />
            </Array>
            <mxPoint x="1997.5" y="644" as="targetPoint" />
            <mxPoint as="offset" />
          </mxGeometry>
        </mxCell>
        <mxCell id="pUAWPXZUTIxpWZgFTHlC-76" value="Membuka Tab Baru" style="text;strokeColor=none;fillColor=none;align=left;verticalAlign=top;spacingLeft=4;spacingRight=4;overflow=hidden;rotatable=0;points=[[0,0.5],[1,0.5]];portConstraint=eastwest;whiteSpace=wrap;html=1;fontStyle=1" parent="1" vertex="1">
          <mxGeometry x="1490" y="478" width="170" height="22" as="geometry" />
        </mxCell>
        <mxCell id="pUAWPXZUTIxpWZgFTHlC-77" value="Menampilkan hasil informasi" style="text;strokeColor=none;fillColor=none;align=left;verticalAlign=top;spacingLeft=4;spacingRight=4;overflow=hidden;rotatable=0;points=[[0,0.5],[1,0.5]];portConstraint=eastwest;whiteSpace=wrap;html=1;" parent="1" vertex="1">
          <mxGeometry x="1600" y="699" width="120" height="40" as="geometry" />
        </mxCell>
        <mxCell id="pUAWPXZUTIxpWZgFTHlC-78" value="" style="edgeStyle=elbowEdgeStyle;rounded=0;orthogonalLoop=1;jettySize=auto;html=1;elbow=vertical;curved=0;" parent="1" target="pUAWPXZUTIxpWZgFTHlC-72" edge="1">
          <mxGeometry relative="1" as="geometry">
            <mxPoint x="1995.5" y="694" as="sourcePoint" />
            <mxPoint x="1760" y="694" as="targetPoint" />
          </mxGeometry>
        </mxCell>
        <mxCell id="pUAWPXZUTIxpWZgFTHlC-79" value="Mengirimkan informasi" style="text;html=1;align=center;verticalAlign=middle;resizable=0;points=[];autosize=1;strokeColor=none;fillColor=none;" parent="1" vertex="1">
          <mxGeometry x="1810" y="669" width="140" height="30" as="geometry" />
        </mxCell>
        <mxCell id="pUAWPXZUTIxpWZgFTHlC-80" value="&lt;font style=&quot;font-size: 12px;&quot;&gt;menekan tombol&amp;nbsp; new tab&lt;/font&gt;" style="html=1;verticalAlign=bottom;endArrow=block;edgeStyle=elbowEdgeStyle;elbow=vertical;curved=0;rounded=0;" parent="1" edge="1">
          <mxGeometry x="0.0075" relative="1" as="geometry">
            <mxPoint x="1556" y="774" as="sourcePoint" />
            <Array as="points">
              <mxPoint x="1641" y="774" />
            </Array>
            <mxPoint as="offset" />
            <mxPoint x="1746" y="774" as="targetPoint" />
          </mxGeometry>
        </mxCell>
        <mxCell id="pUAWPXZUTIxpWZgFTHlC-84" value="Membuka tab baru" style="text;html=1;align=center;verticalAlign=middle;resizable=0;points=[];autosize=1;strokeColor=none;fillColor=none;" parent="1" vertex="1">
          <mxGeometry x="1591" y="832" width="120" height="30" as="geometry" />
        </mxCell>
        <mxCell id="pUAWPXZUTIxpWZgFTHlC-85" value="" style="edgeStyle=elbowEdgeStyle;rounded=0;orthogonalLoop=1;jettySize=auto;html=1;elbow=vertical;curved=0;exitX=0.5;exitY=0.904;exitDx=0;exitDy=0;exitPerimeter=0;" parent="1" edge="1">
          <mxGeometry relative="1" as="geometry">
            <mxPoint x="1745" y="858.0799999999999" as="sourcePoint" />
            <mxPoint x="1555" y="858" as="targetPoint" />
          </mxGeometry>
        </mxCell>
        <mxCell id="pUAWPXZUTIxpWZgFTHlC-87" value="User" style="shape=umlLifeline;perimeter=lifelinePerimeter;whiteSpace=wrap;html=1;container=0;dropTarget=0;collapsible=0;recursiveResize=0;outlineConnect=0;portConstraint=eastwest;newEdgeStyle={&quot;edgeStyle&quot;:&quot;elbowEdgeStyle&quot;,&quot;elbow&quot;:&quot;vertical&quot;,&quot;curved&quot;:0,&quot;rounded&quot;:0};" parent="1" vertex="1">
          <mxGeometry x="80" y="976" width="100" height="350" as="geometry" />
        </mxCell>
        <mxCell id="pUAWPXZUTIxpWZgFTHlC-88" value="" style="html=1;points=[];perimeter=orthogonalPerimeter;outlineConnect=0;targetShapes=umlLifeline;portConstraint=eastwest;newEdgeStyle={&quot;edgeStyle&quot;:&quot;elbowEdgeStyle&quot;,&quot;elbow&quot;:&quot;vertical&quot;,&quot;curved&quot;:0,&quot;rounded&quot;:0};" parent="pUAWPXZUTIxpWZgFTHlC-87" vertex="1">
          <mxGeometry x="45" y="70" width="10" height="280" as="geometry" />
        </mxCell>
        <mxCell id="pUAWPXZUTIxpWZgFTHlC-89" value="&lt;font style=&quot;font-size: 12px;&quot;&gt;Memasukkan URL/ Permintaan mencari&lt;/font&gt;" style="html=1;verticalAlign=bottom;endArrow=block;edgeStyle=elbowEdgeStyle;elbow=horizontal;curved=0;rounded=0;" parent="1" source="pUAWPXZUTIxpWZgFTHlC-88" target="pUAWPXZUTIxpWZgFTHlC-92" edge="1">
          <mxGeometry relative="1" as="geometry">
            <mxPoint x="235" y="1076" as="sourcePoint" />
            <Array as="points">
              <mxPoint x="220" y="1066" />
            </Array>
            <mxPoint as="offset" />
            <mxPoint x="305" y="1066" as="targetPoint" />
          </mxGeometry>
        </mxCell>
        <mxCell id="pUAWPXZUTIxpWZgFTHlC-90" value="" style="edgeStyle=elbowEdgeStyle;rounded=0;orthogonalLoop=1;jettySize=auto;html=1;elbow=vertical;curved=0;" parent="1" source="pUAWPXZUTIxpWZgFTHlC-92" edge="1">
          <mxGeometry relative="1" as="geometry">
            <mxPoint x="334" y="1176" as="sourcePoint" />
            <mxPoint x="134" y="1176" as="targetPoint" />
          </mxGeometry>
        </mxCell>
        <mxCell id="pUAWPXZUTIxpWZgFTHlC-91" value="Current Browser" style="shape=umlLifeline;perimeter=lifelinePerimeter;whiteSpace=wrap;html=1;container=0;dropTarget=0;collapsible=0;recursiveResize=0;outlineConnect=0;portConstraint=eastwest;newEdgeStyle={&quot;edgeStyle&quot;:&quot;elbowEdgeStyle&quot;,&quot;elbow&quot;:&quot;vertical&quot;,&quot;curved&quot;:0,&quot;rounded&quot;:0};" parent="1" vertex="1">
          <mxGeometry x="280" y="976" width="100" height="350" as="geometry" />
        </mxCell>
        <mxCell id="pUAWPXZUTIxpWZgFTHlC-92" value="" style="html=1;points=[];perimeter=orthogonalPerimeter;outlineConnect=0;targetShapes=umlLifeline;portConstraint=eastwest;newEdgeStyle={&quot;edgeStyle&quot;:&quot;elbowEdgeStyle&quot;,&quot;elbow&quot;:&quot;vertical&quot;,&quot;curved&quot;:0,&quot;rounded&quot;:0};" parent="pUAWPXZUTIxpWZgFTHlC-91" vertex="1">
          <mxGeometry x="45" y="80" width="10" height="270" as="geometry" />
        </mxCell>
        <mxCell id="pUAWPXZUTIxpWZgFTHlC-93" value="Web Server" style="shape=umlLifeline;perimeter=lifelinePerimeter;whiteSpace=wrap;html=1;container=0;dropTarget=0;collapsible=0;recursiveResize=0;outlineConnect=0;portConstraint=eastwest;newEdgeStyle={&quot;edgeStyle&quot;:&quot;elbowEdgeStyle&quot;,&quot;elbow&quot;:&quot;vertical&quot;,&quot;curved&quot;:0,&quot;rounded&quot;:0};" parent="1" vertex="1">
          <mxGeometry x="530" y="976" width="100" height="350" as="geometry" />
        </mxCell>
        <mxCell id="pUAWPXZUTIxpWZgFTHlC-94" value="" style="html=1;points=[];perimeter=orthogonalPerimeter;outlineConnect=0;targetShapes=umlLifeline;portConstraint=eastwest;newEdgeStyle={&quot;edgeStyle&quot;:&quot;elbowEdgeStyle&quot;,&quot;elbow&quot;:&quot;vertical&quot;,&quot;curved&quot;:0,&quot;rounded&quot;:0};" parent="pUAWPXZUTIxpWZgFTHlC-93" vertex="1">
          <mxGeometry x="45" y="80" width="10" height="270" as="geometry" />
        </mxCell>
        <mxCell id="pUAWPXZUTIxpWZgFTHlC-95" value="&lt;font style=&quot;font-size: 12px;&quot;&gt;Mengirimkan informasi&lt;/font&gt;" style="html=1;verticalAlign=bottom;endArrow=block;edgeStyle=elbowEdgeStyle;elbow=horizontal;curved=0;rounded=0;" parent="1" edge="1">
          <mxGeometry relative="1" as="geometry">
            <mxPoint x="336" y="1086" as="sourcePoint" />
            <Array as="points">
              <mxPoint x="541" y="1061" />
            </Array>
            <mxPoint x="577.5" y="1086" as="targetPoint" />
            <mxPoint as="offset" />
          </mxGeometry>
        </mxCell>
        <mxCell id="pUAWPXZUTIxpWZgFTHlC-96" value="&lt;b&gt;Menutup Tab&amp;nbsp;&lt;/b&gt;" style="text;strokeColor=none;fillColor=none;align=left;verticalAlign=top;spacingLeft=4;spacingRight=4;overflow=hidden;rotatable=0;points=[[0,0.5],[1,0.5]];portConstraint=eastwest;whiteSpace=wrap;html=1;" parent="1" vertex="1">
          <mxGeometry x="69" y="920" width="170" height="26" as="geometry" />
        </mxCell>
        <mxCell id="pUAWPXZUTIxpWZgFTHlC-97" value="Menampilkan hasil informasi" style="text;strokeColor=none;fillColor=none;align=left;verticalAlign=top;spacingLeft=4;spacingRight=4;overflow=hidden;rotatable=0;points=[[0,0.5],[1,0.5]];portConstraint=eastwest;whiteSpace=wrap;html=1;" parent="1" vertex="1">
          <mxGeometry x="180" y="1141" width="120" height="40" as="geometry" />
        </mxCell>
        <mxCell id="pUAWPXZUTIxpWZgFTHlC-98" value="" style="edgeStyle=elbowEdgeStyle;rounded=0;orthogonalLoop=1;jettySize=auto;html=1;elbow=vertical;curved=0;" parent="1" target="pUAWPXZUTIxpWZgFTHlC-92" edge="1">
          <mxGeometry relative="1" as="geometry">
            <mxPoint x="575.5" y="1136" as="sourcePoint" />
            <mxPoint x="340" y="1136" as="targetPoint" />
          </mxGeometry>
        </mxCell>
        <mxCell id="pUAWPXZUTIxpWZgFTHlC-99" value="Mengirimkan informasi" style="text;html=1;align=center;verticalAlign=middle;resizable=0;points=[];autosize=1;strokeColor=none;fillColor=none;" parent="1" vertex="1">
          <mxGeometry x="390" y="1111" width="140" height="30" as="geometry" />
        </mxCell>
        <mxCell id="pUAWPXZUTIxpWZgFTHlC-100" value="&lt;font style=&quot;font-size: 12px;&quot;&gt;menekan tombol&amp;nbsp; close tab&lt;/font&gt;" style="html=1;verticalAlign=bottom;endArrow=block;edgeStyle=elbowEdgeStyle;elbow=vertical;curved=0;rounded=0;" parent="1" edge="1">
          <mxGeometry x="0.0075" relative="1" as="geometry">
            <mxPoint x="136" y="1216" as="sourcePoint" />
            <Array as="points">
              <mxPoint x="221" y="1216" />
            </Array>
            <mxPoint as="offset" />
            <mxPoint x="326" y="1216" as="targetPoint" />
          </mxGeometry>
        </mxCell>
        <mxCell id="pUAWPXZUTIxpWZgFTHlC-101" value="Menutup tab&amp;nbsp;" style="text;html=1;align=center;verticalAlign=middle;resizable=0;points=[];autosize=1;strokeColor=none;fillColor=none;" parent="1" vertex="1">
          <mxGeometry x="186" y="1274" width="90" height="30" as="geometry" />
        </mxCell>
        <mxCell id="pUAWPXZUTIxpWZgFTHlC-102" value="" style="edgeStyle=elbowEdgeStyle;rounded=0;orthogonalLoop=1;jettySize=auto;html=1;elbow=vertical;curved=0;exitX=0.5;exitY=0.904;exitDx=0;exitDy=0;exitPerimeter=0;" parent="1" edge="1">
          <mxGeometry relative="1" as="geometry">
            <mxPoint x="325" y="1300.08" as="sourcePoint" />
            <mxPoint x="135" y="1300" as="targetPoint" />
          </mxGeometry>
        </mxCell>
        <mxCell id="pUAWPXZUTIxpWZgFTHlC-104" value="User" style="shape=umlLifeline;perimeter=lifelinePerimeter;whiteSpace=wrap;html=1;container=0;dropTarget=0;collapsible=0;recursiveResize=0;outlineConnect=0;portConstraint=eastwest;newEdgeStyle={&quot;edgeStyle&quot;:&quot;elbowEdgeStyle&quot;,&quot;elbow&quot;:&quot;vertical&quot;,&quot;curved&quot;:0,&quot;rounded&quot;:0};" parent="1" vertex="1">
          <mxGeometry x="801" y="979" width="100" height="350" as="geometry" />
        </mxCell>
        <mxCell id="pUAWPXZUTIxpWZgFTHlC-105" value="" style="html=1;points=[];perimeter=orthogonalPerimeter;outlineConnect=0;targetShapes=umlLifeline;portConstraint=eastwest;newEdgeStyle={&quot;edgeStyle&quot;:&quot;elbowEdgeStyle&quot;,&quot;elbow&quot;:&quot;vertical&quot;,&quot;curved&quot;:0,&quot;rounded&quot;:0};" parent="pUAWPXZUTIxpWZgFTHlC-104" vertex="1">
          <mxGeometry x="45" y="70" width="10" height="280" as="geometry" />
        </mxCell>
        <mxCell id="pUAWPXZUTIxpWZgFTHlC-106" value="&lt;font style=&quot;font-size: 12px;&quot;&gt;Memasukkan URL/ Permintaan mencari&lt;/font&gt;" style="html=1;verticalAlign=bottom;endArrow=block;edgeStyle=elbowEdgeStyle;elbow=vertical;curved=0;rounded=0;" parent="1" source="pUAWPXZUTIxpWZgFTHlC-105" target="pUAWPXZUTIxpWZgFTHlC-109" edge="1">
          <mxGeometry relative="1" as="geometry">
            <mxPoint x="956" y="1079" as="sourcePoint" />
            <Array as="points">
              <mxPoint x="941" y="1069" />
            </Array>
            <mxPoint as="offset" />
            <mxPoint x="1026" y="1069" as="targetPoint" />
          </mxGeometry>
        </mxCell>
        <mxCell id="pUAWPXZUTIxpWZgFTHlC-107" value="" style="edgeStyle=elbowEdgeStyle;rounded=0;orthogonalLoop=1;jettySize=auto;html=1;elbow=vertical;curved=0;" parent="1" source="pUAWPXZUTIxpWZgFTHlC-109" edge="1">
          <mxGeometry relative="1" as="geometry">
            <mxPoint x="1055" y="1179" as="sourcePoint" />
            <mxPoint x="855" y="1179" as="targetPoint" />
          </mxGeometry>
        </mxCell>
        <mxCell id="pUAWPXZUTIxpWZgFTHlC-108" value="Current Browser" style="shape=umlLifeline;perimeter=lifelinePerimeter;whiteSpace=wrap;html=1;container=0;dropTarget=0;collapsible=0;recursiveResize=0;outlineConnect=0;portConstraint=eastwest;newEdgeStyle={&quot;edgeStyle&quot;:&quot;elbowEdgeStyle&quot;,&quot;elbow&quot;:&quot;vertical&quot;,&quot;curved&quot;:0,&quot;rounded&quot;:0};" parent="1" vertex="1">
          <mxGeometry x="1001" y="979" width="100" height="350" as="geometry" />
        </mxCell>
        <mxCell id="pUAWPXZUTIxpWZgFTHlC-109" value="" style="html=1;points=[];perimeter=orthogonalPerimeter;outlineConnect=0;targetShapes=umlLifeline;portConstraint=eastwest;newEdgeStyle={&quot;edgeStyle&quot;:&quot;elbowEdgeStyle&quot;,&quot;elbow&quot;:&quot;vertical&quot;,&quot;curved&quot;:0,&quot;rounded&quot;:0};" parent="pUAWPXZUTIxpWZgFTHlC-108" vertex="1">
          <mxGeometry x="45" y="80" width="10" height="270" as="geometry" />
        </mxCell>
        <mxCell id="pUAWPXZUTIxpWZgFTHlC-110" value="Web Server" style="shape=umlLifeline;perimeter=lifelinePerimeter;whiteSpace=wrap;html=1;container=0;dropTarget=0;collapsible=0;recursiveResize=0;outlineConnect=0;portConstraint=eastwest;newEdgeStyle={&quot;edgeStyle&quot;:&quot;elbowEdgeStyle&quot;,&quot;elbow&quot;:&quot;vertical&quot;,&quot;curved&quot;:0,&quot;rounded&quot;:0};" parent="1" vertex="1">
          <mxGeometry x="1251" y="979" width="100" height="350" as="geometry" />
        </mxCell>
        <mxCell id="pUAWPXZUTIxpWZgFTHlC-111" value="" style="html=1;points=[];perimeter=orthogonalPerimeter;outlineConnect=0;targetShapes=umlLifeline;portConstraint=eastwest;newEdgeStyle={&quot;edgeStyle&quot;:&quot;elbowEdgeStyle&quot;,&quot;elbow&quot;:&quot;vertical&quot;,&quot;curved&quot;:0,&quot;rounded&quot;:0};" parent="pUAWPXZUTIxpWZgFTHlC-110" vertex="1">
          <mxGeometry x="45" y="80" width="10" height="270" as="geometry" />
        </mxCell>
        <mxCell id="pUAWPXZUTIxpWZgFTHlC-112" value="&lt;font style=&quot;font-size: 12px;&quot;&gt;Mengirimkan informasi&lt;/font&gt;" style="html=1;verticalAlign=bottom;endArrow=block;edgeStyle=elbowEdgeStyle;elbow=horizontal;curved=0;rounded=0;" parent="1" edge="1">
          <mxGeometry relative="1" as="geometry">
            <mxPoint x="1057" y="1089" as="sourcePoint" />
            <Array as="points">
              <mxPoint x="1262" y="1064" />
            </Array>
            <mxPoint x="1298.5" y="1089" as="targetPoint" />
            <mxPoint as="offset" />
          </mxGeometry>
        </mxCell>
        <mxCell id="pUAWPXZUTIxpWZgFTHlC-113" value="&lt;b&gt;Pergi ke Halaman Dibookmark&lt;/b&gt;" style="text;strokeColor=none;fillColor=none;align=left;verticalAlign=top;spacingLeft=4;spacingRight=4;overflow=hidden;rotatable=0;points=[[0,0.5],[1,0.5]];portConstraint=eastwest;whiteSpace=wrap;html=1;" parent="1" vertex="1">
          <mxGeometry x="790" y="923" width="270" height="26" as="geometry" />
        </mxCell>
        <mxCell id="pUAWPXZUTIxpWZgFTHlC-114" value="Menampilkan hasil informasi" style="text;strokeColor=none;fillColor=none;align=left;verticalAlign=top;spacingLeft=4;spacingRight=4;overflow=hidden;rotatable=0;points=[[0,0.5],[1,0.5]];portConstraint=eastwest;whiteSpace=wrap;html=1;" parent="1" vertex="1">
          <mxGeometry x="901" y="1144" width="120" height="40" as="geometry" />
        </mxCell>
        <mxCell id="pUAWPXZUTIxpWZgFTHlC-115" value="" style="edgeStyle=elbowEdgeStyle;rounded=0;orthogonalLoop=1;jettySize=auto;html=1;elbow=vertical;curved=0;" parent="1" target="pUAWPXZUTIxpWZgFTHlC-109" edge="1">
          <mxGeometry relative="1" as="geometry">
            <mxPoint x="1296.5" y="1139" as="sourcePoint" />
            <mxPoint x="1061" y="1139" as="targetPoint" />
          </mxGeometry>
        </mxCell>
        <mxCell id="pUAWPXZUTIxpWZgFTHlC-116" value="Mengirimkan informasi" style="text;html=1;align=center;verticalAlign=middle;resizable=0;points=[];autosize=1;strokeColor=none;fillColor=none;" parent="1" vertex="1">
          <mxGeometry x="1111" y="1114" width="140" height="30" as="geometry" />
        </mxCell>
        <mxCell id="pUAWPXZUTIxpWZgFTHlC-117" value="&lt;font style=&quot;font-size: 12px;&quot;&gt;Memilih halaman dari daftar bookmark&lt;/font&gt;" style="html=1;verticalAlign=bottom;endArrow=block;edgeStyle=elbowEdgeStyle;elbow=horizontal;curved=0;rounded=0;" parent="1" edge="1">
          <mxGeometry x="0.0075" relative="1" as="geometry">
            <mxPoint x="857" y="1219" as="sourcePoint" />
            <Array as="points">
              <mxPoint x="942" y="1219" />
            </Array>
            <mxPoint as="offset" />
            <mxPoint x="1047" y="1219" as="targetPoint" />
          </mxGeometry>
        </mxCell>
        <mxCell id="pUAWPXZUTIxpWZgFTHlC-118" value="Mengarahkan ke halaman bookmark yang dipilih" style="text;html=1;align=center;verticalAlign=middle;resizable=0;points=[];autosize=1;strokeColor=none;fillColor=none;" parent="1" vertex="1">
          <mxGeometry x="812" y="1277" width="280" height="30" as="geometry" />
        </mxCell>
        <mxCell id="pUAWPXZUTIxpWZgFTHlC-119" value="" style="edgeStyle=elbowEdgeStyle;rounded=0;orthogonalLoop=1;jettySize=auto;html=1;elbow=vertical;curved=0;exitX=0.5;exitY=0.904;exitDx=0;exitDy=0;exitPerimeter=0;" parent="1" edge="1">
          <mxGeometry relative="1" as="geometry">
            <mxPoint x="1046" y="1303.08" as="sourcePoint" />
            <mxPoint x="856" y="1303" as="targetPoint" />
          </mxGeometry>
        </mxCell>
        <mxCell id="pUAWPXZUTIxpWZgFTHlC-120" value="User" style="shape=umlLifeline;perimeter=lifelinePerimeter;whiteSpace=wrap;html=1;container=0;dropTarget=0;collapsible=0;recursiveResize=0;outlineConnect=0;portConstraint=eastwest;newEdgeStyle={&quot;edgeStyle&quot;:&quot;elbowEdgeStyle&quot;,&quot;elbow&quot;:&quot;vertical&quot;,&quot;curved&quot;:0,&quot;rounded&quot;:0};" parent="1" vertex="1">
          <mxGeometry x="1491" y="979" width="100" height="350" as="geometry" />
        </mxCell>
        <mxCell id="pUAWPXZUTIxpWZgFTHlC-121" value="" style="html=1;points=[];perimeter=orthogonalPerimeter;outlineConnect=0;targetShapes=umlLifeline;portConstraint=eastwest;newEdgeStyle={&quot;edgeStyle&quot;:&quot;elbowEdgeStyle&quot;,&quot;elbow&quot;:&quot;vertical&quot;,&quot;curved&quot;:0,&quot;rounded&quot;:0};" parent="pUAWPXZUTIxpWZgFTHlC-120" vertex="1">
          <mxGeometry x="45" y="70" width="10" height="280" as="geometry" />
        </mxCell>
        <mxCell id="pUAWPXZUTIxpWZgFTHlC-122" value="&lt;font style=&quot;font-size: 12px;&quot;&gt;Memasukkan URL/ Permintaan mencari&lt;/font&gt;" style="html=1;verticalAlign=bottom;endArrow=block;edgeStyle=elbowEdgeStyle;elbow=vertical;curved=0;rounded=0;" parent="1" source="pUAWPXZUTIxpWZgFTHlC-121" target="pUAWPXZUTIxpWZgFTHlC-125" edge="1">
          <mxGeometry relative="1" as="geometry">
            <mxPoint x="1646" y="1079" as="sourcePoint" />
            <Array as="points">
              <mxPoint x="1631" y="1069" />
            </Array>
            <mxPoint as="offset" />
            <mxPoint x="1716" y="1069" as="targetPoint" />
          </mxGeometry>
        </mxCell>
        <mxCell id="pUAWPXZUTIxpWZgFTHlC-123" value="" style="edgeStyle=elbowEdgeStyle;rounded=0;orthogonalLoop=1;jettySize=auto;html=1;elbow=vertical;curved=0;" parent="1" source="pUAWPXZUTIxpWZgFTHlC-125" edge="1">
          <mxGeometry relative="1" as="geometry">
            <mxPoint x="1745" y="1179" as="sourcePoint" />
            <mxPoint x="1545" y="1179" as="targetPoint" />
          </mxGeometry>
        </mxCell>
        <mxCell id="pUAWPXZUTIxpWZgFTHlC-124" value="Current Browser" style="shape=umlLifeline;perimeter=lifelinePerimeter;whiteSpace=wrap;html=1;container=0;dropTarget=0;collapsible=0;recursiveResize=0;outlineConnect=0;portConstraint=eastwest;newEdgeStyle={&quot;edgeStyle&quot;:&quot;elbowEdgeStyle&quot;,&quot;elbow&quot;:&quot;vertical&quot;,&quot;curved&quot;:0,&quot;rounded&quot;:0};" parent="1" vertex="1">
          <mxGeometry x="1691" y="979" width="100" height="350" as="geometry" />
        </mxCell>
        <mxCell id="pUAWPXZUTIxpWZgFTHlC-125" value="" style="html=1;points=[];perimeter=orthogonalPerimeter;outlineConnect=0;targetShapes=umlLifeline;portConstraint=eastwest;newEdgeStyle={&quot;edgeStyle&quot;:&quot;elbowEdgeStyle&quot;,&quot;elbow&quot;:&quot;vertical&quot;,&quot;curved&quot;:0,&quot;rounded&quot;:0};" parent="pUAWPXZUTIxpWZgFTHlC-124" vertex="1">
          <mxGeometry x="45" y="80" width="10" height="270" as="geometry" />
        </mxCell>
        <mxCell id="pUAWPXZUTIxpWZgFTHlC-126" value="Web Server" style="shape=umlLifeline;perimeter=lifelinePerimeter;whiteSpace=wrap;html=1;container=0;dropTarget=0;collapsible=0;recursiveResize=0;outlineConnect=0;portConstraint=eastwest;newEdgeStyle={&quot;edgeStyle&quot;:&quot;elbowEdgeStyle&quot;,&quot;elbow&quot;:&quot;vertical&quot;,&quot;curved&quot;:0,&quot;rounded&quot;:0};" parent="1" vertex="1">
          <mxGeometry x="1941" y="979" width="100" height="350" as="geometry" />
        </mxCell>
        <mxCell id="pUAWPXZUTIxpWZgFTHlC-127" value="" style="html=1;points=[];perimeter=orthogonalPerimeter;outlineConnect=0;targetShapes=umlLifeline;portConstraint=eastwest;newEdgeStyle={&quot;edgeStyle&quot;:&quot;elbowEdgeStyle&quot;,&quot;elbow&quot;:&quot;vertical&quot;,&quot;curved&quot;:0,&quot;rounded&quot;:0};" parent="pUAWPXZUTIxpWZgFTHlC-126" vertex="1">
          <mxGeometry x="45" y="80" width="10" height="270" as="geometry" />
        </mxCell>
        <mxCell id="pUAWPXZUTIxpWZgFTHlC-128" value="&lt;font style=&quot;font-size: 12px;&quot;&gt;Mengirimkan informasi&lt;/font&gt;" style="html=1;verticalAlign=bottom;endArrow=block;edgeStyle=elbowEdgeStyle;elbow=horizontal;curved=0;rounded=0;" parent="1" edge="1">
          <mxGeometry relative="1" as="geometry">
            <mxPoint x="1747" y="1089" as="sourcePoint" />
            <Array as="points">
              <mxPoint x="1952" y="1064" />
            </Array>
            <mxPoint x="1988.5" y="1089" as="targetPoint" />
            <mxPoint as="offset" />
          </mxGeometry>
        </mxCell>
        <mxCell id="pUAWPXZUTIxpWZgFTHlC-129" value="&lt;b&gt;Pergi ke Halaman Dibookmark&lt;/b&gt;" style="text;strokeColor=none;fillColor=none;align=left;verticalAlign=top;spacingLeft=4;spacingRight=4;overflow=hidden;rotatable=0;points=[[0,0.5],[1,0.5]];portConstraint=eastwest;whiteSpace=wrap;html=1;" parent="1" vertex="1">
          <mxGeometry x="1480" y="923" width="270" height="26" as="geometry" />
        </mxCell>
        <mxCell id="pUAWPXZUTIxpWZgFTHlC-130" value="Menampilkan hasil informasi" style="text;strokeColor=none;fillColor=none;align=left;verticalAlign=top;spacingLeft=4;spacingRight=4;overflow=hidden;rotatable=0;points=[[0,0.5],[1,0.5]];portConstraint=eastwest;whiteSpace=wrap;html=1;" parent="1" vertex="1">
          <mxGeometry x="1591" y="1144" width="120" height="40" as="geometry" />
        </mxCell>
        <mxCell id="pUAWPXZUTIxpWZgFTHlC-131" value="" style="edgeStyle=elbowEdgeStyle;rounded=0;orthogonalLoop=1;jettySize=auto;html=1;elbow=vertical;curved=0;" parent="1" target="pUAWPXZUTIxpWZgFTHlC-125" edge="1">
          <mxGeometry relative="1" as="geometry">
            <mxPoint x="1986.5" y="1139" as="sourcePoint" />
            <mxPoint x="1751" y="1139" as="targetPoint" />
          </mxGeometry>
        </mxCell>
        <mxCell id="pUAWPXZUTIxpWZgFTHlC-132" value="Mengirimkan informasi" style="text;html=1;align=center;verticalAlign=middle;resizable=0;points=[];autosize=1;strokeColor=none;fillColor=none;" parent="1" vertex="1">
          <mxGeometry x="1801" y="1114" width="140" height="30" as="geometry" />
        </mxCell>
        <mxCell id="pUAWPXZUTIxpWZgFTHlC-133" value="&lt;font style=&quot;font-size: 12px;&quot;&gt;Mengubah pengaturan seacrh engine&lt;/font&gt;" style="html=1;verticalAlign=bottom;endArrow=block;edgeStyle=elbowEdgeStyle;elbow=horizontal;curved=0;rounded=0;" parent="1" edge="1">
          <mxGeometry x="0.0075" relative="1" as="geometry">
            <mxPoint x="1547" y="1219" as="sourcePoint" />
            <Array as="points">
              <mxPoint x="1632" y="1219" />
            </Array>
            <mxPoint as="offset" />
            <mxPoint x="1737" y="1219" as="targetPoint" />
          </mxGeometry>
        </mxCell>
        <mxCell id="pUAWPXZUTIxpWZgFTHlC-134" value="Mengubah search engine yang digunakan" style="text;html=1;align=center;verticalAlign=middle;resizable=0;points=[];autosize=1;strokeColor=none;fillColor=none;" parent="1" vertex="1">
          <mxGeometry x="1517" y="1277" width="250" height="30" as="geometry" />
        </mxCell>
        <mxCell id="pUAWPXZUTIxpWZgFTHlC-135" value="" style="edgeStyle=elbowEdgeStyle;rounded=0;orthogonalLoop=1;jettySize=auto;html=1;elbow=vertical;curved=0;exitX=0.5;exitY=0.904;exitDx=0;exitDy=0;exitPerimeter=0;" parent="1" edge="1">
          <mxGeometry relative="1" as="geometry">
            <mxPoint x="1736" y="1303.08" as="sourcePoint" />
            <mxPoint x="1546" y="1303" as="targetPoint" />
          </mxGeometry>
        </mxCell>
        <mxCell id="pUAWPXZUTIxpWZgFTHlC-136" value="User" style="shape=umlLifeline;perimeter=lifelinePerimeter;whiteSpace=wrap;html=1;container=0;dropTarget=0;collapsible=0;recursiveResize=0;outlineConnect=0;portConstraint=eastwest;newEdgeStyle={&quot;edgeStyle&quot;:&quot;elbowEdgeStyle&quot;,&quot;elbow&quot;:&quot;vertical&quot;,&quot;curved&quot;:0,&quot;rounded&quot;:0};" parent="1" vertex="1">
          <mxGeometry x="80" y="1466" width="100" height="654" as="geometry" />
        </mxCell>
        <mxCell id="pUAWPXZUTIxpWZgFTHlC-137" value="" style="html=1;points=[];perimeter=orthogonalPerimeter;outlineConnect=0;targetShapes=umlLifeline;portConstraint=eastwest;newEdgeStyle={&quot;edgeStyle&quot;:&quot;elbowEdgeStyle&quot;,&quot;elbow&quot;:&quot;vertical&quot;,&quot;curved&quot;:0,&quot;rounded&quot;:0};" parent="pUAWPXZUTIxpWZgFTHlC-136" vertex="1">
          <mxGeometry x="45" y="70" width="10" height="540" as="geometry" />
        </mxCell>
        <mxCell id="pUAWPXZUTIxpWZgFTHlC-138" value="&lt;font style=&quot;font-size: 12px;&quot;&gt;Memasukkan URL/ Permintaan mencari&lt;/font&gt;" style="html=1;verticalAlign=bottom;endArrow=block;edgeStyle=elbowEdgeStyle;elbow=horizontal;curved=0;rounded=0;" parent="1" source="pUAWPXZUTIxpWZgFTHlC-137" target="pUAWPXZUTIxpWZgFTHlC-141" edge="1">
          <mxGeometry relative="1" as="geometry">
            <mxPoint x="235" y="1566" as="sourcePoint" />
            <Array as="points">
              <mxPoint x="220" y="1556" />
            </Array>
            <mxPoint as="offset" />
            <mxPoint x="305" y="1556" as="targetPoint" />
          </mxGeometry>
        </mxCell>
        <mxCell id="pUAWPXZUTIxpWZgFTHlC-139" value="" style="edgeStyle=elbowEdgeStyle;rounded=0;orthogonalLoop=1;jettySize=auto;html=1;elbow=vertical;curved=0;" parent="1" source="pUAWPXZUTIxpWZgFTHlC-141" edge="1">
          <mxGeometry relative="1" as="geometry">
            <mxPoint x="334" y="1666" as="sourcePoint" />
            <mxPoint x="134" y="1666" as="targetPoint" />
          </mxGeometry>
        </mxCell>
        <mxCell id="pUAWPXZUTIxpWZgFTHlC-140" value="Current Browser" style="shape=umlLifeline;perimeter=lifelinePerimeter;whiteSpace=wrap;html=1;container=0;dropTarget=0;collapsible=0;recursiveResize=0;outlineConnect=0;portConstraint=eastwest;newEdgeStyle={&quot;edgeStyle&quot;:&quot;elbowEdgeStyle&quot;,&quot;elbow&quot;:&quot;vertical&quot;,&quot;curved&quot;:0,&quot;rounded&quot;:0};" parent="1" vertex="1">
          <mxGeometry x="280" y="1466" width="100" height="644" as="geometry" />
        </mxCell>
        <mxCell id="pUAWPXZUTIxpWZgFTHlC-141" value="" style="html=1;points=[];perimeter=orthogonalPerimeter;outlineConnect=0;targetShapes=umlLifeline;portConstraint=eastwest;newEdgeStyle={&quot;edgeStyle&quot;:&quot;elbowEdgeStyle&quot;,&quot;elbow&quot;:&quot;vertical&quot;,&quot;curved&quot;:0,&quot;rounded&quot;:0};" parent="pUAWPXZUTIxpWZgFTHlC-140" vertex="1">
          <mxGeometry x="45" y="80" width="10" height="530" as="geometry" />
        </mxCell>
        <mxCell id="pUAWPXZUTIxpWZgFTHlC-142" value="Web Server" style="shape=umlLifeline;perimeter=lifelinePerimeter;whiteSpace=wrap;html=1;container=0;dropTarget=0;collapsible=0;recursiveResize=0;outlineConnect=0;portConstraint=eastwest;newEdgeStyle={&quot;edgeStyle&quot;:&quot;elbowEdgeStyle&quot;,&quot;elbow&quot;:&quot;vertical&quot;,&quot;curved&quot;:0,&quot;rounded&quot;:0};" parent="1" vertex="1">
          <mxGeometry x="530" y="1466" width="100" height="644" as="geometry" />
        </mxCell>
        <mxCell id="pUAWPXZUTIxpWZgFTHlC-143" value="" style="html=1;points=[];perimeter=orthogonalPerimeter;outlineConnect=0;targetShapes=umlLifeline;portConstraint=eastwest;newEdgeStyle={&quot;edgeStyle&quot;:&quot;elbowEdgeStyle&quot;,&quot;elbow&quot;:&quot;vertical&quot;,&quot;curved&quot;:0,&quot;rounded&quot;:0};" parent="pUAWPXZUTIxpWZgFTHlC-142" vertex="1">
          <mxGeometry x="45" y="80" width="10" height="530" as="geometry" />
        </mxCell>
        <mxCell id="pUAWPXZUTIxpWZgFTHlC-144" value="&lt;font style=&quot;font-size: 12px;&quot;&gt;Mengirimkan informasi&lt;/font&gt;" style="html=1;verticalAlign=bottom;endArrow=block;edgeStyle=elbowEdgeStyle;elbow=horizontal;curved=0;rounded=0;" parent="1" edge="1">
          <mxGeometry relative="1" as="geometry">
            <mxPoint x="336" y="1576" as="sourcePoint" />
            <Array as="points">
              <mxPoint x="541" y="1551" />
            </Array>
            <mxPoint x="577.5" y="1576" as="targetPoint" />
            <mxPoint as="offset" />
          </mxGeometry>
        </mxCell>
        <mxCell id="pUAWPXZUTIxpWZgFTHlC-145" value="&lt;b&gt;Melakukan Unduh Berkkas&lt;/b&gt;" style="text;strokeColor=none;fillColor=none;align=left;verticalAlign=top;spacingLeft=4;spacingRight=4;overflow=hidden;rotatable=0;points=[[0,0.5],[1,0.5]];portConstraint=eastwest;whiteSpace=wrap;html=1;" parent="1" vertex="1">
          <mxGeometry x="69" y="1410" width="270" height="26" as="geometry" />
        </mxCell>
        <mxCell id="pUAWPXZUTIxpWZgFTHlC-146" value="Menampilkan hasil informasi" style="text;strokeColor=none;fillColor=none;align=left;verticalAlign=top;spacingLeft=4;spacingRight=4;overflow=hidden;rotatable=0;points=[[0,0.5],[1,0.5]];portConstraint=eastwest;whiteSpace=wrap;html=1;" parent="1" vertex="1">
          <mxGeometry x="180" y="1631" width="120" height="40" as="geometry" />
        </mxCell>
        <mxCell id="pUAWPXZUTIxpWZgFTHlC-147" value="" style="edgeStyle=elbowEdgeStyle;rounded=0;orthogonalLoop=1;jettySize=auto;html=1;elbow=vertical;curved=0;" parent="1" target="pUAWPXZUTIxpWZgFTHlC-141" edge="1">
          <mxGeometry relative="1" as="geometry">
            <mxPoint x="575.5" y="1626" as="sourcePoint" />
            <mxPoint x="340" y="1626" as="targetPoint" />
          </mxGeometry>
        </mxCell>
        <mxCell id="pUAWPXZUTIxpWZgFTHlC-148" value="Mengirimkan informasi" style="text;html=1;align=center;verticalAlign=middle;resizable=0;points=[];autosize=1;strokeColor=none;fillColor=none;" parent="1" vertex="1">
          <mxGeometry x="390" y="1601" width="140" height="30" as="geometry" />
        </mxCell>
        <mxCell id="pUAWPXZUTIxpWZgFTHlC-149" value="&lt;font style=&quot;font-size: 12px;&quot;&gt;Klik&amp;nbsp; yang akan diunduh&lt;/font&gt;" style="html=1;verticalAlign=bottom;endArrow=block;edgeStyle=elbowEdgeStyle;elbow=horizontal;curved=0;rounded=0;" parent="1" edge="1">
          <mxGeometry x="0.0075" relative="1" as="geometry">
            <mxPoint x="135" y="1720" as="sourcePoint" />
            <Array as="points">
              <mxPoint x="220" y="1720" />
            </Array>
            <mxPoint as="offset" />
            <mxPoint x="325" y="1720" as="targetPoint" />
          </mxGeometry>
        </mxCell>
        <mxCell id="pUAWPXZUTIxpWZgFTHlC-151" value="" style="edgeStyle=elbowEdgeStyle;rounded=0;orthogonalLoop=1;jettySize=auto;html=1;elbow=vertical;curved=0;exitX=0.5;exitY=0.904;exitDx=0;exitDy=0;exitPerimeter=0;" parent="1" edge="1">
          <mxGeometry relative="1" as="geometry">
            <mxPoint x="326" y="1880.08" as="sourcePoint" />
            <mxPoint x="136" y="1880" as="targetPoint" />
          </mxGeometry>
        </mxCell>
        <mxCell id="pUAWPXZUTIxpWZgFTHlC-152" value="DownloadManager" style="shape=umlLifeline;perimeter=lifelinePerimeter;whiteSpace=wrap;html=1;container=0;dropTarget=0;collapsible=0;recursiveResize=0;outlineConnect=0;portConstraint=eastwest;newEdgeStyle={&quot;edgeStyle&quot;:&quot;elbowEdgeStyle&quot;,&quot;elbow&quot;:&quot;vertical&quot;,&quot;curved&quot;:0,&quot;rounded&quot;:0};" parent="1" vertex="1">
          <mxGeometry x="750" y="1520" width="100" height="350" as="geometry" />
        </mxCell>
        <mxCell id="pUAWPXZUTIxpWZgFTHlC-153" value="" style="html=1;points=[];perimeter=orthogonalPerimeter;outlineConnect=0;targetShapes=umlLifeline;portConstraint=eastwest;newEdgeStyle={&quot;edgeStyle&quot;:&quot;elbowEdgeStyle&quot;,&quot;elbow&quot;:&quot;vertical&quot;,&quot;curved&quot;:0,&quot;rounded&quot;:0};" parent="pUAWPXZUTIxpWZgFTHlC-152" vertex="1">
          <mxGeometry x="45" y="80" width="10" height="270" as="geometry" />
        </mxCell>
        <mxCell id="pUAWPXZUTIxpWZgFTHlC-154" value="&lt;font style=&quot;font-size: 12px;&quot;&gt;Permintaan untuk mengunduh berkas&lt;/font&gt;" style="html=1;verticalAlign=bottom;endArrow=block;edgeStyle=elbowEdgeStyle;elbow=horizontal;curved=0;rounded=0;" parent="1" edge="1">
          <mxGeometry x="0.0075" relative="1" as="geometry">
            <mxPoint x="337" y="1740" as="sourcePoint" />
            <Array as="points">
              <mxPoint x="422" y="1740" />
            </Array>
            <mxPoint as="offset" />
            <mxPoint x="577.5" y="1740" as="targetPoint" />
          </mxGeometry>
        </mxCell>
        <mxCell id="pUAWPXZUTIxpWZgFTHlC-155" value="" style="edgeStyle=elbowEdgeStyle;rounded=0;orthogonalLoop=1;jettySize=auto;html=1;elbow=vertical;curved=0;" parent="1" edge="1">
          <mxGeometry relative="1" as="geometry">
            <mxPoint x="576.5" y="1782" as="sourcePoint" />
            <mxPoint x="336" y="1782" as="targetPoint" />
          </mxGeometry>
        </mxCell>
        <mxCell id="pUAWPXZUTIxpWZgFTHlC-156" value="&lt;span style=&quot;color: rgb(0, 0, 0); font-family: Helvetica; font-style: normal; font-variant-ligatures: normal; font-variant-caps: normal; font-weight: 400; letter-spacing: normal; orphans: 2; text-align: center; text-indent: 0px; text-transform: none; widows: 2; word-spacing: 0px; -webkit-text-stroke-width: 0px; background-color: rgb(255, 255, 255); text-decoration-thickness: initial; text-decoration-style: initial; text-decoration-color: initial; float: none; display: inline !important;&quot;&gt;&lt;font style=&quot;font-size: 12px;&quot;&gt;Mengirimkan&amp;nbsp; berkas yang diminta&lt;/font&gt;&lt;/span&gt;" style="text;whiteSpace=wrap;html=1;" parent="1" vertex="1">
          <mxGeometry x="360" y="1760" width="190" height="40" as="geometry" />
        </mxCell>
        <mxCell id="pUAWPXZUTIxpWZgFTHlC-157" value="&lt;font style=&quot;font-size: 12px;&quot;&gt;Memulai&amp;nbsp; unduhan&lt;/font&gt;" style="html=1;verticalAlign=bottom;endArrow=block;edgeStyle=elbowEdgeStyle;elbow=horizontal;curved=0;rounded=0;" parent="1" edge="1">
          <mxGeometry x="0.0075" relative="1" as="geometry">
            <mxPoint x="336" y="1804" as="sourcePoint" />
            <Array as="points">
              <mxPoint x="650.5" y="1804.33" />
            </Array>
            <mxPoint as="offset" />
            <mxPoint x="796" y="1804" as="targetPoint" />
          </mxGeometry>
        </mxCell>
        <mxCell id="pUAWPXZUTIxpWZgFTHlC-158" value="" style="edgeStyle=elbowEdgeStyle;rounded=0;orthogonalLoop=1;jettySize=auto;html=1;elbow=vertical;curved=0;" parent="1" edge="1">
          <mxGeometry relative="1" as="geometry">
            <mxPoint x="795" y="1850" as="sourcePoint" />
            <mxPoint x="334.16666666666663" y="1849.6666666666665" as="targetPoint" />
          </mxGeometry>
        </mxCell>
        <mxCell id="pUAWPXZUTIxpWZgFTHlC-159" value="&lt;span style=&quot;color: rgb(0, 0, 0); font-family: Helvetica; font-style: normal; font-variant-ligatures: normal; font-variant-caps: normal; font-weight: 400; letter-spacing: normal; orphans: 2; text-align: center; text-indent: 0px; text-transform: none; widows: 2; word-spacing: 0px; -webkit-text-stroke-width: 0px; background-color: rgb(255, 255, 255); text-decoration-thickness: initial; text-decoration-style: initial; text-decoration-color: initial; float: none; display: inline !important;&quot;&gt;&lt;font style=&quot;font-size: 12px;&quot;&gt;Mengelola status unduhan&lt;/font&gt;&lt;/span&gt;" style="text;whiteSpace=wrap;html=1;" parent="1" vertex="1">
          <mxGeometry x="445" y="1820" width="190" height="40" as="geometry" />
        </mxCell>
        <mxCell id="pUAWPXZUTIxpWZgFTHlC-160" value="&lt;span style=&quot;color: rgb(0, 0, 0); font-family: Helvetica; font-style: normal; font-variant-ligatures: normal; font-variant-caps: normal; font-weight: 400; letter-spacing: normal; orphans: 2; text-align: center; text-indent: 0px; text-transform: none; widows: 2; word-spacing: 0px; -webkit-text-stroke-width: 0px; background-color: rgb(255, 255, 255); text-decoration-thickness: initial; text-decoration-style: initial; text-decoration-color: initial; float: none; display: inline !important;&quot;&gt;&lt;font style=&quot;font-size: 12px;&quot;&gt;Pilihan penyimpanan berkas&lt;/font&gt;&lt;/span&gt;" style="text;whiteSpace=wrap;html=1;" parent="1" vertex="1">
          <mxGeometry x="150" y="1850" width="190" height="40" as="geometry" />
        </mxCell>
        <mxCell id="pUAWPXZUTIxpWZgFTHlC-162" value="&lt;font style=&quot;font-size: 12px;&quot;&gt;Memilih lokasi penyimpanan&lt;/font&gt;" style="html=1;verticalAlign=bottom;endArrow=block;edgeStyle=elbowEdgeStyle;elbow=horizontal;curved=0;rounded=0;" parent="1" edge="1">
          <mxGeometry x="0.0075" relative="1" as="geometry">
            <mxPoint x="137" y="1960" as="sourcePoint" />
            <Array as="points">
              <mxPoint x="222" y="1960" />
            </Array>
            <mxPoint as="offset" />
            <mxPoint x="327" y="1960" as="targetPoint" />
          </mxGeometry>
        </mxCell>
        <mxCell id="pUAWPXZUTIxpWZgFTHlC-164" value="" style="edgeStyle=elbowEdgeStyle;rounded=0;orthogonalLoop=1;jettySize=auto;html=1;elbow=vertical;curved=0;exitX=0.5;exitY=0.904;exitDx=0;exitDy=0;exitPerimeter=0;" parent="1" edge="1">
          <mxGeometry relative="1" as="geometry">
            <mxPoint x="326" y="2000.4099999999999" as="sourcePoint" />
            <mxPoint x="136" y="2000.33" as="targetPoint" />
          </mxGeometry>
        </mxCell>
        <mxCell id="pUAWPXZUTIxpWZgFTHlC-165" value="&lt;span style=&quot;color: rgb(0, 0, 0); font-family: Helvetica; font-style: normal; font-variant-ligatures: normal; font-variant-caps: normal; font-weight: 400; letter-spacing: normal; orphans: 2; text-align: center; text-indent: 0px; text-transform: none; widows: 2; word-spacing: 0px; -webkit-text-stroke-width: 0px; background-color: rgb(255, 255, 255); text-decoration-thickness: initial; text-decoration-style: initial; text-decoration-color: initial; float: none; display: inline !important;&quot;&gt;&lt;font style=&quot;font-size: 12px;&quot;&gt;Konfirmasi penyimpanan lokasi&lt;/font&gt;&lt;/span&gt;" style="text;whiteSpace=wrap;html=1;" parent="1" vertex="1">
          <mxGeometry x="148" y="1976" width="190" height="40" as="geometry" />
        </mxCell>
        <mxCell id="pUAWPXZUTIxpWZgFTHlC-166" value="" style="edgeStyle=elbowEdgeStyle;rounded=0;orthogonalLoop=1;jettySize=auto;html=1;elbow=vertical;curved=0;exitX=0.5;exitY=0.904;exitDx=0;exitDy=0;exitPerimeter=0;" parent="1" edge="1">
          <mxGeometry relative="1" as="geometry">
            <mxPoint x="325" y="2050.08" as="sourcePoint" />
            <mxPoint x="135" y="2050" as="targetPoint" />
          </mxGeometry>
        </mxCell>
        <mxCell id="pUAWPXZUTIxpWZgFTHlC-167" value="&lt;span style=&quot;color: rgb(0, 0, 0); font-family: Helvetica; font-style: normal; font-variant-ligatures: normal; font-variant-caps: normal; font-weight: 400; letter-spacing: normal; orphans: 2; text-align: center; text-indent: 0px; text-transform: none; widows: 2; word-spacing: 0px; -webkit-text-stroke-width: 0px; background-color: rgb(255, 255, 255); text-decoration-thickness: initial; text-decoration-style: initial; text-decoration-color: initial; float: none; display: inline !important;&quot;&gt;&lt;font style=&quot;font-size: 12px;&quot;&gt;Menampilkan status&amp;nbsp; unduhan&lt;/font&gt;&lt;/span&gt;" style="text;whiteSpace=wrap;html=1;" parent="1" vertex="1">
          <mxGeometry x="145" y="2020" width="190" height="40" as="geometry" />
        </mxCell>
      </root>
    </mxGraphModel>
  </diagram>
</mxfile>
